<svg xmlns="http://www.w3.org/2000/svg" xmlns:xlink="http://www.w3.org/1999/xlink" contentStyleType="text/css" data-diagram-type="DESCRIPTION" height="820px" preserveAspectRatio="none" style="width:1108px;height:820px;background:#FFFFFF;" version="1.1" viewBox="0 0 1108 820" width="1108px" zoomAndPan="magnify"><?plantuml 1.2026.3?><defs/><g><g class="title" data-source-line="1"><text fill="#000000" font-family="sans-serif" font-size="14" font-weight="700" lengthAdjust="spacing" textLength="451.2129" x="324.9707" y="24.5332">Library Borrowing Management System V2 - Simplified Architecture</text></g><!--cluster com.library--><g class="cluster" data-qualified-name="com.library" data-source-line="5" id="ent0002"><path d="M717,44.6094 L793.4756,44.6094 A3.75,3.75 0 0 1 795.9756,47.1094 L802.9756,68.2188 L850,68.2188 A2.5,2.5 0 0 1 852.5,70.7188 L852.5,235.1094 A2.5,2.5 0 0 1 850,237.6094 L717,237.6094 A2.5,2.5 0 0 1 714.5,235.1094 L714.5,47.1094 A2.5,2.5 0 0 1 717,44.6094" fill="none" style="stroke:#000000;stroke-width:1.5;"/><line style="stroke:#000000;stroke-width:1.5;" x1="714.5" x2="802.9756" y1="68.2188" y2="68.2188"/><text fill="#000000" font-family="sans-serif" font-size="14" font-weight="700" lengthAdjust="spacing" textLength="75.4756" x="718.5" y="61.1426">com.library</text></g><!--cluster com.library.service--><g class="cluster" data-qualified-name="com.library.service" data-source-line="13" id="ent0007"><path d="M715,288.1094 L843.6338,288.1094 A3.75,3.75 0 0 1 846.1338,290.6094 L853.1338,311.7188 L853,311.7188 A2.5,2.5 0 0 1 855.5,314.2188 L855.5,375.6094 A2.5,2.5 0 0 1 853,378.1094 L715,378.1094 A2.5,2.5 0 0 1 712.5,375.6094 L712.5,290.6094 A2.5,2.5 0 0 1 715,288.1094" fill="none" style="stroke:#000000;stroke-width:1.5;"/><line style="stroke:#000000;stroke-width:1.5;" x1="712.5" x2="853.1338" y1="311.7188" y2="311.7188"/><text fill="#000000" font-family="sans-serif" font-size="14" font-weight="700" lengthAdjust="spacing" textLength="127.6338" x="716.5" y="304.6426">com.library.service</text></g><!--cluster com.library.database--><g class="cluster" data-qualified-name="com.library.database" data-source-line="17" id="ent0009"><path d="M244,428.1094 L385.0615,428.1094 A3.75,3.75 0 0 1 387.5615,430.6094 L394.5615,451.7188 L456,451.7188 A2.5,2.5 0 0 1 458.5,454.2188 L458.5,664.1094 A2.5,2.5 0 0 1 456,666.6094 L244,666.6094 A2.5,2.5 0 0 1 241.5,664.1094 L241.5,430.6094 A2.5,2.5 0 0 1 244,428.1094" fill="none" style="stroke:#000000;stroke-width:1.5;"/><line style="stroke:#000000;stroke-width:1.5;" x1="241.5" x2="394.5615" y1="451.7188" y2="451.7188"/><text fill="#000000" font-family="sans-serif" font-size="14" font-weight="700" lengthAdjust="spacing" textLength="140.0615" x="245.5" y="444.6426">com.library.database</text></g><!--cluster com.library.model--><g class="cluster" data-qualified-name="com.library.model" data-source-line="22" id="ent0012"><path d="M710,576.6094 L831.5928,576.6094 A3.75,3.75 0 0 1 834.0928,579.1094 L841.0928,600.2188 L849,600.2188 A2.5,2.5 0 0 1 851.5,602.7188 L851.5,664.1094 A2.5,2.5 0 0 1 849,666.6094 L710,666.6094 A2.5,2.5 0 0 1 707.5,664.1094 L707.5,579.1094 A2.5,2.5 0 0 1 710,576.6094" fill="none" style="stroke:#000000;stroke-width:1.5;"/><line style="stroke:#000000;stroke-width:1.5;" x1="707.5" x2="841.0928" y1="600.2188" y2="600.2188"/><text fill="#000000" font-family="sans-serif" font-size="14" font-weight="700" lengthAdjust="spacing" textLength="120.5928" x="711.5" y="593.1426">com.library.model</text></g><!--cluster support packages--><g class="cluster" data-qualified-name="support packages" data-source-line="26" id="ent0014"><path d="M878,576.6094 L998.8135,576.6094 A3.75,3.75 0 0 1 1001.3135,579.1094 L1008.3135,600.2188 L1090,600.2188 A2.5,2.5 0 0 1 1092.5,602.7188 L1092.5,664.1094 A2.5,2.5 0 0 1 1090,666.6094 L878,666.6094 A2.5,2.5 0 0 1 875.5,664.1094 L875.5,579.1094 A2.5,2.5 0 0 1 878,576.6094" fill="none" style="stroke:#000000;stroke-width:1.5;"/><line style="stroke:#000000;stroke-width:1.5;" x1="875.5" x2="1008.3135" y1="600.2188" y2="600.2188"/><text fill="#000000" font-family="sans-serif" font-size="14" font-weight="700" lengthAdjust="spacing" textLength="119.8135" x="879.5" y="593.1426">support packages</text></g><!--entity Main--><g class="entity" data-qualified-name="com.library.Main" data-source-line="6" id="ent0003"><rect fill="#F1F1F1" height="37.6094" rx="2.5" ry="2.5" style="stroke:#181818;stroke-width:0.5;" width="50.3447" x="758.5" y="80.6094"/><text fill="#000000" font-family="sans-serif" font-size="14" lengthAdjust="spacing" textLength="30.3447" x="768.5" y="105.1426">Main</text></g><!--entity ConsoleMenu--><g class="entity" data-qualified-name="com.library.ConsoleMenu" data-source-line="6" id="ent0004"><rect fill="#F1F1F1" height="37.6094" rx="2.5" ry="2.5" style="stroke:#181818;stroke-width:0.5;" width="106.3857" x="730.5" y="183.6094"/><text fill="#000000" font-family="sans-serif" font-size="14" lengthAdjust="spacing" textLength="86.3857" x="740.5" y="208.1426">ConsoleMenu</text></g><!--entity com.library.ui--><g class="entity" data-qualified-name="com.library.ui" data-source-line="9" id="ent0006"><path d="M871,79.1094 L975.8066,79.1094 A3.75,3.75 0 0 1 978.3066,81.6094 L985.3066,102.7188 L999.8066,102.7188 A2.5,2.5 0 0 1 1002.3066,105.2188 L1002.3066,117.2188 A2.5,2.5 0 0 1 999.8066,119.7188 L871,119.7188 A2.5,2.5 0 0 1 868.5,117.2188 L868.5,81.6094 A2.5,2.5 0 0 1 871,79.1094" fill="#F1F1F1" style="stroke:#181818;stroke-width:0.5;"/><line style="stroke:#181818;stroke-width:0.5;" x1="868.5" x2="985.3066" y1="102.7188" y2="102.7188"/><text fill="#000000" font-family="sans-serif" font-size="14" font-weight="700" lengthAdjust="spacing" textLength="91.8066" x="878.5" y="96.6426">com.library.ui</text></g><!--entity LibraryService--><g class="entity" data-qualified-name="com.library.service.LibraryService" data-source-line="14" id="ent0008"><rect fill="#F1F1F1" height="37.6094" rx="2.5" ry="2.5" style="stroke:#181818;stroke-width:0.5;" width="109.4756" x="729" y="324.1094"/><text fill="#000000" font-family="sans-serif" font-size="14" lengthAdjust="spacing" textLength="89.4756" x="739" y="348.6426">LibraryService</text></g><!--entity LibraryRepository--><g class="entity" data-qualified-name="com.library.database.LibraryRepository" data-source-line="18" id="ent0010"><rect fill="#F1F1F1" height="37.6094" rx="2.5" ry="2.5" style="stroke:#181818;stroke-width:0.5;" width="129.71" x="312.5" y="464.1094"/><text fill="#000000" font-family="sans-serif" font-size="14" lengthAdjust="spacing" textLength="109.71" x="322.5" y="488.6426">LibraryRepository</text></g><!--entity DatabaseConnection--><g class="entity" data-qualified-name="com.library.database.DatabaseConnection" data-source-line="19" id="ent0011"><rect fill="#F1F1F1" height="37.6094" rx="2.5" ry="2.5" style="stroke:#181818;stroke-width:0.5;" width="150.7578" x="258" y="612.6094"/><text fill="#000000" font-family="sans-serif" font-size="14" lengthAdjust="spacing" textLength="130.7578" x="268" y="637.1426">DatabaseConnection</text></g><!--entity Model Classes--><g class="entity" data-qualified-name="com.library.model.Model Classes" data-source-line="23" id="ent0013"><rect fill="#F1F1F1" height="37.6094" rx="2.5" ry="2.5" style="stroke:#181818;stroke-width:0.5;" width="111.8135" x="723.5" y="612.6094"/><text fill="#000000" font-family="sans-serif" font-size="14" lengthAdjust="spacing" textLength="91.8135" x="733.5" y="637.1426">Model Classes</text></g><!--entity enums--><g class="entity" data-qualified-name="support packages.enums" data-source-line="27" id="ent0015"><rect fill="#F1F1F1" height="37.6094" rx="2.5" ry="2.5" style="stroke:#181818;stroke-width:0.5;" width="62.0205" x="891.5" y="612.6094"/><text fill="#000000" font-family="sans-serif" font-size="14" lengthAdjust="spacing" textLength="42.0205" x="901.5" y="637.1426">enums</text></g><!--entity exceptions--><g class="entity" data-qualified-name="support packages.exceptions" data-source-line="28" id="ent0016"><rect fill="#F1F1F1" height="37.6094" rx="2.5" ry="2.5" style="stroke:#181818;stroke-width:0.5;" width="86.9307" x="989" y="612.6094"/><text fill="#000000" font-family="sans-serif" font-size="14" lengthAdjust="spacing" textLength="66.9307" x="999" y="637.1426">exceptions</text></g><!--entity DB--><g class="entity" data-qualified-name="DB" data-source-line="31" id="ent0017"><path d="M271,741.1094 C271,731.1094 333.5103,731.1094 333.5103,731.1094 C333.5103,731.1094 396.0205,731.1094 396.0205,741.1094 L396.0205,785.3281 C396.0205,795.3281 333.5103,795.3281 333.5103,795.3281 C333.5103,795.3281 271,795.3281 271,785.3281 L271,741.1094" fill="#F1F1F1" style="stroke:#181818;stroke-width:0.5;"/><path d="M271,741.1094 C271,751.1094 333.5103,751.1094 333.5103,751.1094 C333.5103,751.1094 396.0205,751.1094 396.0205,741.1094" fill="none" style="stroke:#181818;stroke-width:0.5;"/><text fill="#000000" font-family="sans-serif" font-size="14" lengthAdjust="spacing" textLength="105.0205" x="281" y="769.6426">MySQL/MariaDB</text><text fill="#000000" font-family="sans-serif" font-size="14" lengthAdjust="spacing" textLength="61.4756" x="281" y="787.252">library_db</text></g><g class="entity" data-qualified-name="GMN27" data-source-line="44" id="ent0028"><path d="M872,181.1094 L872,198.6094 L836.75,202.6094 L872,206.6094 L872,223.8125 A0,0 0 0 0 872,223.8125 L1093.1543,223.8125 A0,0 0 0 0 1093.1543,223.8125 L1093.1543,191.1094 L1083.1543,181.1094 L872,181.1094 A0,0 0 0 0 872,181.1094" fill="#FEFFDD" style="stroke:#181818;stroke-width:0.5;"/><path d="M1083.1543,181.1094 L1083.1543,191.1094 L1093.1543,191.1094 L1083.1543,181.1094" fill="#FEFFDD" style="stroke:#181818;stroke-width:0.5;"/><text fill="#000000" font-family="sans-serif" font-size="13" lengthAdjust="spacing" textLength="200.1543" x="878" y="199.6045">Official V2 demo is console-based.</text><text fill="#000000" font-family="sans-serif" font-size="13" lengthAdjust="spacing" textLength="88.1499" x="878" y="215.9561">No Swing core.</text></g><g class="entity" data-qualified-name="GMN30" data-source-line="49" id="ent0031"><path d="M6,453.6094 L6,512.6641 L224.9771,512.6641 L224.9771,463.6094 L214.9771,453.6094 L6,453.6094" fill="#FEFFDD" style="stroke:#181818;stroke-width:0.5;"/><path d="M214.9771,453.6094 L214.9771,463.6094 L224.9771,463.6094 L214.9771,453.6094" fill="#FEFFDD" style="stroke:#181818;stroke-width:1;"/><text fill="#000000" font-family="sans-serif" font-size="13" lengthAdjust="spacing" textLength="88.1499" x="12" y="472.1045">Business rules:</text><text fill="#000000" font-family="sans-serif" font-size="13" lengthAdjust="spacing" textLength="132.2407" x="12" y="488.4561">loan limit, unpaid fines,</text><text fill="#000000" font-family="sans-serif" font-size="13" lengthAdjust="spacing" textLength="197.9771" x="12" y="504.8076">copy availability, reservation rules.</text></g><g class="entity" data-qualified-name="GMN33" data-source-line="55" id="ent0034"><path d="M474.5,610.1094 L474.5,652.8125 L688.4053,652.8125 L688.4053,620.1094 L678.4053,610.1094 L474.5,610.1094" fill="#FEFFDD" style="stroke:#181818;stroke-width:0.5;"/><path d="M678.4053,610.1094 L678.4053,620.1094 L688.4053,620.1094 L678.4053,610.1094" fill="#FEFFDD" style="stroke:#181818;stroke-width:1;"/><text fill="#000000" font-family="sans-serif" font-size="13" lengthAdjust="spacing" textLength="133.6626" x="480.5" y="628.6045">Simple SQL repository.</text><text fill="#000000" font-family="sans-serif" font-size="13" lengthAdjust="spacing" textLength="192.9053" x="480.5" y="644.9561">No many-DAO architecture in V2.</text></g><!--link Main to ConsoleMenu--><g class="link" data-entity-1="ent0003" data-entity-2="ent0004" data-link-type="dependency" data-source-line="6" id="lnk5"><path d="M783.5,118.6694 C783.5,136.9394 783.5,159.0294 783.5,177.3694" fill="none" id="Main-to-ConsoleMenu" style="stroke:#181818;stroke-width:1;"/><polygon fill="#181818" points="783.5,183.3694,787.5,174.3694,783.5,178.3694,779.5,174.3694,783.5,183.3694" style="stroke:#181818;stroke-width:1;"/></g><!--link ConsoleMenu to LibraryService--><g class="link" data-entity-1="ent0004" data-entity-2="ent0008" data-link-type="dependency" data-source-line="33" id="lnk18"><path d="M783.5,221.7194 C783.5,248.2594 783.5,291.4494 783.5,317.9994" fill="none" id="ConsoleMenu-to-LibraryService" style="stroke:#181818;stroke-width:1;"/><polygon fill="#181818" points="783.5,323.9994,787.5,314.9994,783.5,318.9994,779.5,314.9994,783.5,323.9994" style="stroke:#181818;stroke-width:1;"/><text fill="#000000" font-family="sans-serif" font-size="13" lengthAdjust="spacing" textLength="86.6836" x="784.5" y="268.6045">calls workflows</text></g><!--link LibraryService to LibraryRepository--><g class="link" data-entity-1="ent0008" data-entity-2="ent0010" data-link-type="dependency" data-source-line="34" id="lnk19"><path d="M728.89,357.4894 C692.51,366.8094 643.78,380.0394 601.5,394.1094 C537.08,415.5494 469.7191,442.8994 425.0591,461.7194" fill="none" id="LibraryService-to-LibraryRepository" style="stroke:#181818;stroke-width:1;"/><polygon fill="#181818" points="419.53,464.0494,429.377,464.2404,424.1376,462.1077,426.2703,456.8683,419.53,464.0494" style="stroke:#181818;stroke-width:1;"/><text fill="#000000" font-family="sans-serif" font-size="13" lengthAdjust="spacing" textLength="154.6353" x="602.5" y="408.6045">applies rules, asks for data</text></g><!--link LibraryRepository to DatabaseConnection--><g class="link" data-entity-1="ent0010" data-entity-2="ent0011" data-link-type="dependency" data-source-line="35" id="lnk20"><path d="M372.02,502.3694 C363.54,530.5894 349.0771,578.7533 340.6371,606.8333" fill="none" id="LibraryRepository-to-DatabaseConnection" style="stroke:#181818;stroke-width:1;"/><polygon fill="#181818" points="338.91,612.5794,345.3313,605.1117,340.3492,607.791,337.6699,602.8089,338.91,612.5794" style="stroke:#181818;stroke-width:1;"/><text fill="#000000" font-family="sans-serif" font-size="13" lengthAdjust="spacing" textLength="148.8589" x="359.5" y="557.1045">obtains JDBC Connection</text></g><!--link DatabaseConnection to DB--><g class="link" data-entity-1="ent0011" data-entity-2="ent0017" data-link-type="dependency" data-source-line="36" id="lnk21"><path d="M333.5,650.6194 C333.5,671.3994 333.5,699.9294 333.5,725.0694" fill="none" id="DatabaseConnection-to-DB" style="stroke:#181818;stroke-width:1;"/><polygon fill="#181818" points="333.5,731.0694,337.5,722.0694,333.5,726.0694,329.5,722.0694,333.5,731.0694" style="stroke:#181818;stroke-width:1;"/><text fill="#000000" font-family="sans-serif" font-size="13" lengthAdjust="spacing" textLength="33.9473" x="334.5" y="697.6045">JDBC</text></g><!--link LibraryService to Model Classes--><g class="link" data-entity-1="ent0008" data-entity-2="ent0013" data-link-type="dependency" data-source-line="37" id="lnk22"><path d="M783.24,362.4694 C782.52,414.2194 780.5538,554.84 779.8338,606.41" fill="none" id="LibraryService-to-Model Classes" style="stroke:#181818;stroke-width:1;stroke-dasharray:7,7;"/><polygon fill="#181818" points="779.75,612.4094,783.8753,603.4661,779.8198,607.4099,775.876,603.3544,779.75,612.4094" style="stroke:#181818;stroke-width:1;"/><text fill="#000000" font-family="sans-serif" font-size="13" lengthAdjust="spacing" textLength="72.2617" x="782.5" y="488.6045">uses objects</text></g><!--link LibraryRepository to Model Classes--><g class="link" data-entity-1="ent0010" data-entity-2="ent0013" data-link-type="dependency" data-source-line="38" id="lnk23"><path d="M430.63,502.1194 C490.92,522.3094 585.64,553.1794 622.5,560.6094 C659.26,568.0194 671.95,554.0194 706.5,568.6094 C729.48,578.3094 746.5054,593.5343 760.0554,608.1143" fill="none" id="LibraryRepository-to-Model Classes" style="stroke:#181818;stroke-width:1;stroke-dasharray:7,7;"/><polygon fill="#181818" points="764.14,612.5094,760.9432,603.1938,760.7362,608.8468,755.0831,608.6398,764.14,612.5094" style="stroke:#181818;stroke-width:1;"/><text fill="#000000" font-family="sans-serif" font-size="13" lengthAdjust="spacing" textLength="92.4727" x="623.5" y="557.1045">maps SQL rows</text></g><!--link LibraryService to enums--><g class="link" data-entity-1="ent0008" data-entity-2="ent0015" data-link-type="dependency" data-source-line="39" id="lnk24"><path d="M808.99,362.3294 C826.71,376.2694 849.56,396.9694 863.5,420.1094 C902.08,484.1594 915.5216,568.3302 919.9916,606.4702" fill="none" id="LibraryService-to-enums" style="stroke:#181818;stroke-width:1;stroke-dasharray:7,7;"/><polygon fill="#181818" points="920.69,612.4294,923.6152,603.0249,920.108,607.4634,915.6696,603.9562,920.69,612.4294" style="stroke:#181818;stroke-width:1;"/></g><!--link LibraryService to exceptions--><g class="link" data-entity-1="ent0008" data-entity-2="ent0016" data-link-type="dependency" data-source-line="40" id="lnk25"><path d="M821.18,362.1394 C838.51,370.9894 859.05,382.2794 876.5,394.1094 C959.77,450.5394 1007.4615,562.1046 1024.1215,606.9746" fill="none" id="LibraryService-to-exceptions" style="stroke:#181818;stroke-width:1;stroke-dasharray:7,7;"/><polygon fill="#181818" points="1026.21,612.5994,1026.8272,602.7699,1024.4696,607.912,1019.3274,605.5545,1026.21,612.5994" style="stroke:#181818;stroke-width:1;"/></g><!--link LibraryRepository to enums--><g class="link" data-entity-1="ent0010" data-entity-2="ent0015" data-link-type="dependency" data-source-line="41" id="lnk26"><path d="M442.72,484.4894 C537.49,487.4694 716.66,502.3294 851.5,568.6094 C873.24,579.2894 889.4654,593.973 902.7554,608.143" fill="none" id="LibraryRepository-to-enums" style="stroke:#181818;stroke-width:1;stroke-dasharray:7,7;"/><polygon fill="#181818" points="906.86,612.5194,903.6207,603.2185,903.4395,608.8724,897.7856,608.6912,906.86,612.5194" style="stroke:#181818;stroke-width:1;"/></g><!--link LibraryService to GMN30--><g class="link" data-entity-1="ent0008" data-entity-2="ent0031" data-link-type="association" data-source-line="49" id="lnk32"><path d="M728.8,346.0594 C629.6,350.8494 414.29,366.9794 241.5,420.1094 C214.93,428.2794 187.04,441.4694 164.27,453.5794" fill="none" id="LibraryService-GMN30" style="stroke:#181818;stroke-width:1;stroke-dasharray:7,7;"/></g><!--link LibraryRepository to GMN33--><g class="link" data-entity-1="ent0010" data-entity-2="ent0034" data-link-type="association" data-source-line="55" id="lnk35"><path d="M439.48,502.1194 C465.02,511.4994 493.86,524.7994 516.5,542.6094 C540.09,561.1594 559.32,590.3394 570.59,609.9494" fill="none" id="LibraryRepository-GMN33" style="stroke:#181818;stroke-width:1;stroke-dasharray:7,7;"/></g><?plantuml-src ZLHBRzim3BxhLn0v9nxGOmy5wleqD2is0xjqmK3RSif53qEKcnd3_liesrtJr05wiY5z3_AJg4ZHQBYdAc0O8FSX-2EvFMpHuLvRxIAK0qTjuViLRA0asnbgIJTm6-edYhgEVT1AyO5SXm4jrDvstWcnZ8D81q6Wsnl1T5WVH1HM0idCPBc2FmhWSOlaTh3PtC3ZdNViZTvgr-_KtsLMrjDC_12QTNYcMi-KkTboMhpCQZ1YXNn6-wOxpnHz67PfjPX1KeUJJicxouBMDzgyD9p-uSuWi-Qt5EwxpeS8ymBF3EdGykYfVzUwIrOJyQLEM6s7yklzfoq6mYB_uMRVdqsr0cGeSgNUv3NbVHO7N4EDnZ0SVJYqnXzPlOESyaxo42fsSZqqG-YDvhMu7XXQ7o3Lg9OeezH2YABbgoYtWk5paT_1wvPQX2UT8XTMGh-lECjkpZCNR2zViVab8hnOtJBDOiSWIKDOJ6SapQTrOVFa02_QpWhA-IXJHFkd2Buzk_0FRKireKd3sMZhWLZcRmHiKa9DfhvuACU9hdtGcTAkWQGuwrO-Hcz7uVEno7icfta-osjbF3emP2ckePTPfmRQ15YhsdS3u3EImOeCnM4jKvzc3bEF4_y3pgUJDRupUWhv__BOZ4KtR8hR1y2JzmV8IGIl7ly0?></g></svg>