<svg xmlns="http://www.w3.org/2000/svg" xmlns:xlink="http://www.w3.org/1999/xlink" contentStyleType="text/css" data-diagram-type="SEQUENCE" height="1044px" preserveAspectRatio="none" style="width:1176px;height:1044px;background:#FFFFFF;" version="1.1" viewBox="0 0 1176 1044" width="1176px" zoomAndPan="magnify"><?plantuml 1.2026.3?><defs/><g><g class="title" data-source-line="1"><text fill="#000000" font-family="sans-serif" font-size="14" font-weight="700" lengthAdjust="spacing" textLength="157.917" x="505.6177" y="29.5332">Borrow Book Sequence</text></g><g class="participant-lifeline" data-entity-uid="part1" data-qualified-name="Librarian" data-source-line="3" id="part1-lifeline"><g><title>Librarian</title><rect fill="#000000" fill-opacity="0.00000" height="839.4922" width="8" x="31.2378" y="121.2188"/><line style="stroke:#181818;stroke-width:0.5;stroke-dasharray:5,5;" x1="35" x2="35" y1="121.2188" y2="960.7109"/></g></g><g class="participant-lifeline" data-entity-uid="part2" data-qualified-name="ConsoleMenu" data-source-line="4" id="part2-lifeline"><g><title>ConsoleMenu</title><rect fill="#000000" fill-opacity="0.00000" height="839.4922" width="8" x="216.354" y="121.2188"/><line style="stroke:#181818;stroke-width:0.5;stroke-dasharray:5,5;" x1="220.1611" x2="220.1611" y1="121.2188" y2="960.7109"/></g></g><g class="participant-lifeline" data-entity-uid="part3" data-qualified-name="LibraryService" data-source-line="5" id="part3-lifeline"><g><title>LibraryService</title><rect fill="#000000" fill-opacity="0.00000" height="839.4922" width="8" x="486.7319" y="121.2188"/><line style="stroke:#181818;stroke-width:0.5;stroke-dasharray:5,5;" x1="489.9941" x2="489.9941" y1="121.2188" y2="960.7109"/></g></g><g class="participant-lifeline" data-entity-uid="part4" data-qualified-name="LibraryRepository" data-source-line="6" id="part4-lifeline"><g><title>LibraryRepository</title><rect fill="#000000" fill-opacity="0.00000" height="839.4922" width="8" x="791.8188" y="121.2188"/><line style="stroke:#181818;stroke-width:0.5;stroke-dasharray:5,5;" x1="794.9639" x2="794.9639" y1="121.2188" y2="960.7109"/></g></g><g class="participant-lifeline" data-entity-uid="part5" data-qualified-name="DB" data-source-line="7" id="part5-lifeline"><g><title>MySQL Database</title><rect fill="#000000" fill-opacity="0.00000" height="839.4922" width="8" x="1102.9043" y="121.2188"/><line style="stroke:#181818;stroke-width:0.5;stroke-dasharray:5,5;" x1="1106.6563" x2="1106.6563" y1="121.2188" y2="960.7109"/></g></g><g class="participant participant-head" data-entity-uid="part1" data-qualified-name="Librarian" data-source-line="3" id="part1-head"><text fill="#000000" font-family="sans-serif" font-size="14" lengthAdjust="spacing" textLength="54.4756" x="5" y="118.1426">Librarian</text><ellipse cx="35.2378" cy="52.1094" fill="#E2E2F0" rx="8" ry="8" style="stroke:#181818;stroke-width:0.5;"/><path d="M35.2378,60.1094 L35.2378,87.1094 M22.2378,68.1094 L48.2378,68.1094 M35.2378,87.1094 L22.2378,102.1094 M35.2378,87.1094 L48.2378,102.1094" fill="none" style="stroke:#181818;stroke-width:0.5;"/></g><g class="participant participant-tail" data-entity-uid="part1" data-qualified-name="Librarian" data-source-line="3" id="part1-tail"><text fill="#000000" font-family="sans-serif" font-size="14" lengthAdjust="spacing" textLength="54.4756" x="5" y="974.2441">Librarian</text><ellipse cx="35.2378" cy="985.8203" fill="#E2E2F0" rx="8" ry="8" style="stroke:#181818;stroke-width:0.5;"/><path d="M35.2378,993.8203 L35.2378,1020.8203 M22.2378,1001.8203 L48.2378,1001.8203 M35.2378,1020.8203 L22.2378,1035.8203 M35.2378,1020.8203 L48.2378,1035.8203" fill="none" style="stroke:#181818;stroke-width:0.5;"/></g><g class="participant participant-head" data-entity-uid="part2" data-qualified-name="ConsoleMenu" data-source-line="4" id="part2-head"><rect fill="#E2E2F0" height="31.6094" rx="2.5" ry="2.5" style="stroke:#181818;stroke-width:0.5;" width="100.3857" x="170.1611" y="88.6094"/><text fill="#000000" font-family="sans-serif" font-size="14" lengthAdjust="spacing" textLength="86.3857" x="177.1611" y="110.1426">ConsoleMenu</text></g><g class="participant participant-tail" data-entity-uid="part2" data-qualified-name="ConsoleMenu" data-source-line="4" id="part2-tail"><rect fill="#E2E2F0" height="31.6094" rx="2.5" ry="2.5" style="stroke:#181818;stroke-width:0.5;" width="100.3857" x="170.1611" y="959.7109"/><text fill="#000000" font-family="sans-serif" font-size="14" lengthAdjust="spacing" textLength="86.3857" x="177.1611" y="981.2441">ConsoleMenu</text></g><g class="participant participant-head" data-entity-uid="part3" data-qualified-name="LibraryService" data-source-line="5" id="part3-head"><rect fill="#E2E2F0" height="31.6094" rx="2.5" ry="2.5" style="stroke:#181818;stroke-width:0.5;" width="103.4756" x="438.9941" y="88.6094"/><text fill="#000000" font-family="sans-serif" font-size="14" lengthAdjust="spacing" textLength="89.4756" x="445.9941" y="110.1426">LibraryService</text></g><g class="participant participant-tail" data-entity-uid="part3" data-qualified-name="LibraryService" data-source-line="5" id="part3-tail"><rect fill="#E2E2F0" height="31.6094" rx="2.5" ry="2.5" style="stroke:#181818;stroke-width:0.5;" width="103.4756" x="438.9941" y="959.7109"/><text fill="#000000" font-family="sans-serif" font-size="14" lengthAdjust="spacing" textLength="89.4756" x="445.9941" y="981.2441">LibraryService</text></g><g class="participant participant-head" data-entity-uid="part4" data-qualified-name="LibraryRepository" data-source-line="6" id="part4-head"><rect fill="#E2E2F0" height="31.6094" rx="2.5" ry="2.5" style="stroke:#181818;stroke-width:0.5;" width="123.71" x="733.9639" y="88.6094"/><text fill="#000000" font-family="sans-serif" font-size="14" lengthAdjust="spacing" textLength="109.71" x="740.9639" y="110.1426">LibraryRepository</text></g><g class="participant participant-tail" data-entity-uid="part4" data-qualified-name="LibraryRepository" data-source-line="6" id="part4-tail"><rect fill="#E2E2F0" height="31.6094" rx="2.5" ry="2.5" style="stroke:#181818;stroke-width:0.5;" width="123.71" x="733.9639" y="959.7109"/><text fill="#000000" font-family="sans-serif" font-size="14" lengthAdjust="spacing" textLength="109.71" x="740.9639" y="981.2441">LibraryRepository</text></g><g class="participant participant-head" data-entity-uid="part5" data-qualified-name="DB" data-source-line="7" id="part5-head"><text fill="#000000" font-family="sans-serif" font-size="14" lengthAdjust="spacing" textLength="110.4961" x="1048.6563" y="118.1426">MySQL Database</text><path d="M1088.9043,67.6094 C1088.9043,57.6094 1106.9043,57.6094 1106.9043,57.6094 C1106.9043,57.6094 1124.9043,57.6094 1124.9043,67.6094 L1124.9043,93.6094 C1124.9043,103.6094 1106.9043,103.6094 1106.9043,103.6094 C1106.9043,103.6094 1088.9043,103.6094 1088.9043,93.6094 L1088.9043,67.6094" fill="#E2E2F0" style="stroke:#181818;stroke-width:0.5;"/><path d="M1088.9043,67.6094 C1088.9043,77.6094 1106.9043,77.6094 1106.9043,77.6094 C1106.9043,77.6094 1124.9043,77.6094 1124.9043,67.6094" fill="none" style="stroke:#181818;stroke-width:0.5;"/></g><g class="participant participant-tail" data-entity-uid="part5" data-qualified-name="DB" data-source-line="7" id="part5-tail"><text fill="#000000" font-family="sans-serif" font-size="14" lengthAdjust="spacing" textLength="110.4961" x="1048.6563" y="974.2441">MySQL Database</text><path d="M1088.9043,987.3203 C1088.9043,977.3203 1106.9043,977.3203 1106.9043,977.3203 C1106.9043,977.3203 1124.9043,977.3203 1124.9043,987.3203 L1124.9043,1013.3203 C1124.9043,1023.3203 1106.9043,1023.3203 1106.9043,1023.3203 C1106.9043,1023.3203 1088.9043,1023.3203 1088.9043,1013.3203 L1088.9043,987.3203" fill="#E2E2F0" style="stroke:#181818;stroke-width:0.5;"/><path d="M1088.9043,987.3203 C1088.9043,997.3203 1106.9043,997.3203 1106.9043,997.3203 C1106.9043,997.3203 1124.9043,997.3203 1124.9043,987.3203" fill="none" style="stroke:#181818;stroke-width:0.5;"/></g><g class="message" data-entity-1="part1" data-entity-2="part2" data-source-line="9" id="msg1"><polygon fill="#181818" points="208.354,149.5703,218.354,153.5703,208.354,157.5703,212.354,153.5703" style="stroke:#181818;stroke-width:1;"/><line style="stroke:#181818;stroke-width:1;" x1="35.2378" x2="214.354" y1="153.5703" y2="153.5703"/><text fill="#000000" font-family="sans-serif" font-size="13" lengthAdjust="spacing" textLength="114.0103" x="42.2378" y="148.7139">select "Create loan"</text></g><g class="message" data-entity-1="part2" data-entity-2="part1" data-source-line="10" id="msg2"><polygon fill="#181818" points="46.2378,179.9219,36.2378,183.9219,46.2378,187.9219,42.2378,183.9219" style="stroke:#181818;stroke-width:1;"/><line style="stroke:#181818;stroke-width:1;" x1="40.2378" x2="219.354" y1="183.9219" y2="183.9219"/><text fill="#000000" font-family="sans-serif" font-size="13" lengthAdjust="spacing" textLength="161.1162" x="52.2378" y="179.0654">ask member ID and copy ID</text></g><g class="message" data-entity-1="part1" data-entity-2="part2" data-source-line="11" id="msg3"><polygon fill="#181818" points="208.354,210.2734,218.354,214.2734,208.354,218.2734,212.354,214.2734" style="stroke:#181818;stroke-width:1;"/><line style="stroke:#181818;stroke-width:1;" x1="35.2378" x2="214.354" y1="214.2734" y2="214.2734"/><text fill="#000000" font-family="sans-serif" font-size="13" lengthAdjust="spacing" textLength="148.8271" x="42.2378" y="209.417">enter member ID, copy ID</text></g><g class="message" data-entity-1="part2" data-entity-2="part3" data-source-line="12" id="msg4"><polygon fill="#181818" points="478.7319,240.625,488.7319,244.625,478.7319,248.625,482.7319,244.625" style="stroke:#181818;stroke-width:1;"/><line style="stroke:#181818;stroke-width:1;" x1="220.354" x2="484.7319" y1="244.625" y2="244.625"/><text fill="#000000" font-family="sans-serif" font-size="13" lengthAdjust="spacing" textLength="246.3779" x="227.354" y="239.7686">borrowBook(memberId, copyId, librarianId)</text></g><g class="message" data-entity-1="part3" data-entity-2="part4" data-source-line="14" id="msg5"><polygon fill="#181818" points="783.8188,270.9766,793.8188,274.9766,783.8188,278.9766,787.8188,274.9766" style="stroke:#181818;stroke-width:1;"/><line style="stroke:#181818;stroke-width:1;" x1="490.7319" x2="789.8188" y1="274.9766" y2="274.9766"/><text fill="#000000" font-family="sans-serif" font-size="13" lengthAdjust="spacing" textLength="141.5972" x="497.7319" y="270.1201">findUserById(memberId)</text></g><g class="message" data-entity-1="part4" data-entity-2="part5" data-source-line="15" id="msg6"><polygon fill="#181818" points="1094.9043,301.3281,1104.9043,305.3281,1094.9043,309.3281,1098.9043,305.3281" style="stroke:#181818;stroke-width:1;"/><line style="stroke:#181818;stroke-width:1;" x1="795.8188" x2="1100.9043" y1="305.3281" y2="305.3281"/><text fill="#000000" font-family="sans-serif" font-size="13" lengthAdjust="spacing" textLength="130.7617" x="802.8188" y="300.4717">SELECT member/user</text></g><g class="message" data-entity-1="part5" data-entity-2="part4" data-source-line="16" id="msg7"><polygon fill="#181818" points="806.8188,331.6797,796.8188,335.6797,806.8188,339.6797,802.8188,335.6797" style="stroke:#181818;stroke-width:1;"/><line style="stroke:#181818;stroke-width:1;stroke-dasharray:2,2;" x1="800.8188" x2="1105.9043" y1="335.6797" y2="335.6797"/><text fill="#000000" font-family="sans-serif" font-size="13" lengthAdjust="spacing" textLength="72.2363" x="812.8188" y="330.8232">member row</text></g><g class="message" data-entity-1="part4" data-entity-2="part3" data-source-line="17" id="msg8"><polygon fill="#181818" points="501.7319,362.0313,491.7319,366.0313,501.7319,370.0313,497.7319,366.0313" style="stroke:#181818;stroke-width:1;"/><line style="stroke:#181818;stroke-width:1;stroke-dasharray:2,2;" x1="495.7319" x2="794.8188" y1="366.0313" y2="366.0313"/><text fill="#000000" font-family="sans-serif" font-size="13" lengthAdjust="spacing" textLength="47.6772" x="507.7319" y="361.1748">Member</text></g><g class="message" data-entity-1="part3" data-entity-2="part4" data-source-line="19" id="msg9"><polygon fill="#181818" points="783.8188,392.3828,793.8188,396.3828,783.8188,400.3828,787.8188,396.3828" style="stroke:#181818;stroke-width:1;"/><line style="stroke:#181818;stroke-width:1;" x1="490.7319" x2="789.8188" y1="396.3828" y2="396.3828"/><text fill="#000000" font-family="sans-serif" font-size="13" lengthAdjust="spacing" textLength="161.1226" x="497.7319" y="391.5264">hasUnpaidFines(memberId)</text></g><g class="message" data-entity-1="part4" data-entity-2="part5" data-source-line="20" id="msg10"><polygon fill="#181818" points="1094.9043,422.7344,1104.9043,426.7344,1094.9043,430.7344,1098.9043,426.7344" style="stroke:#181818;stroke-width:1;"/><line style="stroke:#181818;stroke-width:1;" x1="795.8188" x2="1100.9043" y1="426.7344" y2="426.7344"/><text fill="#000000" font-family="sans-serif" font-size="13" lengthAdjust="spacing" textLength="159.707" x="802.8188" y="421.8779">SELECT unpaid fines count</text></g><g class="message" data-entity-1="part5" data-entity-2="part4" data-source-line="21" id="msg11"><polygon fill="#181818" points="806.8188,453.0859,796.8188,457.0859,806.8188,461.0859,802.8188,457.0859" style="stroke:#181818;stroke-width:1;"/><line style="stroke:#181818;stroke-width:1;stroke-dasharray:2,2;" x1="800.8188" x2="1105.9043" y1="457.0859" y2="457.0859"/><text fill="#000000" font-family="sans-serif" font-size="13" lengthAdjust="spacing" textLength="31.8018" x="812.8188" y="452.2295">count</text></g><g class="message" data-entity-1="part4" data-entity-2="part3" data-source-line="22" id="msg12"><polygon fill="#181818" points="501.7319,483.4375,491.7319,487.4375,501.7319,491.4375,497.7319,487.4375" style="stroke:#181818;stroke-width:1;"/><line style="stroke:#181818;stroke-width:1;stroke-dasharray:2,2;" x1="495.7319" x2="794.8188" y1="487.4375" y2="487.4375"/><text fill="#000000" font-family="sans-serif" font-size="13" lengthAdjust="spacing" textLength="27.46" x="507.7319" y="482.5811">false</text></g><g class="message" data-entity-1="part3" data-entity-2="part4" data-source-line="24" id="msg13"><polygon fill="#181818" points="783.8188,513.7891,793.8188,517.7891,783.8188,521.7891,787.8188,517.7891" style="stroke:#181818;stroke-width:1;"/><line style="stroke:#181818;stroke-width:1;" x1="490.7319" x2="789.8188" y1="517.7891" y2="517.7891"/><text fill="#000000" font-family="sans-serif" font-size="13" lengthAdjust="spacing" textLength="232.6479" x="497.7319" y="512.9326">countActiveLoansByMember(memberId)</text></g><g class="message" data-entity-1="part4" data-entity-2="part5" data-source-line="25" id="msg14"><polygon fill="#181818" points="1094.9043,544.1406,1104.9043,548.1406,1094.9043,552.1406,1098.9043,548.1406" style="stroke:#181818;stroke-width:1;"/><line style="stroke:#181818;stroke-width:1;" x1="795.8188" x2="1100.9043" y1="548.1406" y2="548.1406"/><text fill="#000000" font-family="sans-serif" font-size="13" lengthAdjust="spacing" textLength="151.7471" x="802.8188" y="543.2842">SELECT active loan count</text></g><g class="message" data-entity-1="part5" data-entity-2="part4" data-source-line="26" id="msg15"><polygon fill="#181818" points="806.8188,574.4922,796.8188,578.4922,806.8188,582.4922,802.8188,578.4922" style="stroke:#181818;stroke-width:1;"/><line style="stroke:#181818;stroke-width:1;stroke-dasharray:2,2;" x1="800.8188" x2="1105.9043" y1="578.4922" y2="578.4922"/><text fill="#000000" font-family="sans-serif" font-size="13" lengthAdjust="spacing" textLength="31.8018" x="812.8188" y="573.6357">count</text></g><g class="message" data-entity-1="part4" data-entity-2="part3" data-source-line="27" id="msg16"><polygon fill="#181818" points="501.7319,604.8438,491.7319,608.8438,501.7319,612.8438,497.7319,608.8438" style="stroke:#181818;stroke-width:1;"/><line style="stroke:#181818;stroke-width:1;stroke-dasharray:2,2;" x1="495.7319" x2="794.8188" y1="608.8438" y2="608.8438"/><text fill="#000000" font-family="sans-serif" font-size="13" lengthAdjust="spacing" textLength="95.3799" x="507.7319" y="603.9873">count under limit</text></g><g class="message" data-entity-1="part3" data-entity-2="part4" data-source-line="29" id="msg17"><polygon fill="#181818" points="783.8188,635.1953,793.8188,639.1953,783.8188,643.1953,787.8188,639.1953" style="stroke:#181818;stroke-width:1;"/><line style="stroke:#181818;stroke-width:1;" x1="490.7319" x2="789.8188" y1="639.1953" y2="639.1953"/><text fill="#000000" font-family="sans-serif" font-size="13" lengthAdjust="spacing" textLength="124.2808" x="497.7319" y="634.3389">findCopyById(copyId)</text></g><g class="message" data-entity-1="part4" data-entity-2="part5" data-source-line="30" id="msg18"><polygon fill="#181818" points="1094.9043,665.5469,1104.9043,669.5469,1094.9043,673.5469,1098.9043,669.5469" style="stroke:#181818;stroke-width:1;"/><line style="stroke:#181818;stroke-width:1;" x1="795.8188" x2="1100.9043" y1="669.5469" y2="669.5469"/><text fill="#000000" font-family="sans-serif" font-size="13" lengthAdjust="spacing" textLength="113.4453" x="802.8188" y="664.6904">SELECT copy/book</text></g><g class="message" data-entity-1="part5" data-entity-2="part4" data-source-line="31" id="msg19"><polygon fill="#181818" points="806.8188,695.8984,796.8188,699.8984,806.8188,703.8984,802.8188,699.8984" style="stroke:#181818;stroke-width:1;"/><line style="stroke:#181818;stroke-width:1;stroke-dasharray:2,2;" x1="800.8188" x2="1105.9043" y1="699.8984" y2="699.8984"/><text fill="#000000" font-family="sans-serif" font-size="13" lengthAdjust="spacing" textLength="52.019" x="812.8188" y="695.042">copy row</text></g><g class="message" data-entity-1="part4" data-entity-2="part3" data-source-line="32" id="msg20"><polygon fill="#181818" points="501.7319,726.25,491.7319,730.25,501.7319,734.25,497.7319,730.25" style="stroke:#181818;stroke-width:1;"/><line style="stroke:#181818;stroke-width:1;stroke-dasharray:2,2;" x1="495.7319" x2="794.8188" y1="730.25" y2="730.25"/><text fill="#000000" font-family="sans-serif" font-size="13" lengthAdjust="spacing" textLength="133.688" x="507.7319" y="725.3936">BookCopy AVAILABLE</text></g><g class="message" data-entity-1="part3" data-entity-2="part4" data-source-line="34" id="msg21"><polygon fill="#181818" points="783.8188,756.6016,793.8188,760.6016,783.8188,764.6016,787.8188,760.6016" style="stroke:#181818;stroke-width:1;"/><line style="stroke:#181818;stroke-width:1;" x1="490.7319" x2="789.8188" y1="760.6016" y2="760.6016"/><text fill="#000000" font-family="sans-serif" font-size="13" lengthAdjust="spacing" textLength="281.0869" x="497.7319" y="755.7451">createLoan(memberId, copyId, librarianId, dates)</text></g><g class="message" data-entity-1="part4" data-entity-2="part5" data-source-line="35" id="msg22"><polygon fill="#181818" points="1094.9043,786.9531,1104.9043,790.9531,1094.9043,794.9531,1098.9043,790.9531" style="stroke:#181818;stroke-width:1;"/><line style="stroke:#181818;stroke-width:1;" x1="795.8188" x2="1100.9043" y1="790.9531" y2="790.9531"/><text fill="#000000" font-family="sans-serif" font-size="13" lengthAdjust="spacing" textLength="82.3608" x="802.8188" y="786.0967">INSERT loans</text></g><g class="message" data-entity-1="part4" data-entity-2="part5" data-source-line="36" id="msg23"><polygon fill="#181818" points="1094.9043,817.3047,1104.9043,821.3047,1094.9043,825.3047,1098.9043,821.3047" style="stroke:#181818;stroke-width:1;"/><line style="stroke:#181818;stroke-width:1;" x1="795.8188" x2="1100.9043" y1="821.3047" y2="821.3047"/><text fill="#000000" font-family="sans-serif" font-size="13" lengthAdjust="spacing" textLength="287.0854" x="802.8188" y="816.4482">UPDATE book_copies SET status='BORROWED'</text></g><g class="message" data-entity-1="part5" data-entity-2="part4" data-source-line="37" id="msg24"><polygon fill="#181818" points="806.8188,847.6563,796.8188,851.6563,806.8188,855.6563,802.8188,851.6563" style="stroke:#181818;stroke-width:1;"/><line style="stroke:#181818;stroke-width:1;stroke-dasharray:2,2;" x1="800.8188" x2="1105.9043" y1="851.6563" y2="851.6563"/><text fill="#000000" font-family="sans-serif" font-size="13" lengthAdjust="spacing" textLength="34.6899" x="812.8188" y="846.7998">saved</text></g><g class="message" data-entity-1="part4" data-entity-2="part3" data-source-line="38" id="msg25"><polygon fill="#181818" points="501.7319,878.0078,491.7319,882.0078,501.7319,886.0078,497.7319,882.0078" style="stroke:#181818;stroke-width:1;"/><line style="stroke:#181818;stroke-width:1;stroke-dasharray:2,2;" x1="495.7319" x2="794.8188" y1="882.0078" y2="882.0078"/><text fill="#000000" font-family="sans-serif" font-size="13" lengthAdjust="spacing" textLength="28.9199" x="507.7319" y="877.1514">Loan</text></g><g class="message" data-entity-1="part3" data-entity-2="part2" data-source-line="39" id="msg26"><polygon fill="#181818" points="231.354,908.3594,221.354,912.3594,231.354,916.3594,227.354,912.3594" style="stroke:#181818;stroke-width:1;"/><line style="stroke:#181818;stroke-width:1;stroke-dasharray:2,2;" x1="225.354" x2="489.7319" y1="912.3594" y2="912.3594"/><text fill="#000000" font-family="sans-serif" font-size="13" lengthAdjust="spacing" textLength="28.9199" x="237.354" y="907.5029">Loan</text></g><g class="message" data-entity-1="part2" data-entity-2="part1" data-source-line="40" id="msg27"><polygon fill="#181818" points="46.2378,938.7109,36.2378,942.7109,46.2378,946.7109,42.2378,942.7109" style="stroke:#181818;stroke-width:1;"/><line style="stroke:#181818;stroke-width:1;stroke-dasharray:2,2;" x1="40.2378" x2="219.354" y1="942.7109" y2="942.7109"/><text fill="#000000" font-family="sans-serif" font-size="13" lengthAdjust="spacing" textLength="160.437" x="52.2378" y="937.8545">show success and due date</text></g><?plantuml-src hLJ1Zfim4BtxAqQvR5VQrTvNQYK8L48YtJOaxR4oU5PhBJ7KOrBnznsRXEmsAI9IJu1vxutVytYSTZL2t5ZR_EP7yme5_khGL2Y4h5nZ8TUbbLPB8rffdQvqAus3PMEegN65fdktFg3x0krUiyQ5Nsji6zAit0ibdImb8InMVV4jX-JmlG19aCH2ZBNX_jFRal08X3LM3XPBYz8Xr8qq2_4MmemJ_P4LNs67kn8jP0b8ew1gsfxVfugWSOmVQNSZvsAXesicbY5Gd-U7WPsfWUoVzR5WfcwF7aVkIUqK50i-QwEsX3PcXL7oLfn3cP_4J2ZIF5rk3dj_w9WgUFt-7_87YxpdIvAN7Au2O-xsNoHjJIkr-gmDqZK6ka3p_f4umSwuAHy3OAQ5PraJpdKGbAFAwJtct6iKzqC2rtYHWHvwzJzR2M3EIl4XrdgdtJLzjUI-37qrDEWC8nxuK79tJnlWkt95H_dRuhS2qVSeowCuJsUVJPW1_bYcRziTyCH1cZAOVIdIzIOS4Kt0jb-JQ9E2Z-0d5zBScqMw0NBITVJn9dvQhvz-fCdDL3uazwZcXkFDdQLnDgy2wjri-ciAqWkFUUgg2ed245GTXb3-0000?></g></svg>