<svg xmlns="http://www.w3.org/2000/svg" xmlns:xlink="http://www.w3.org/1999/xlink" contentStyleType="text/css" data-diagram-type="CLASS" height="1016px" preserveAspectRatio="none" style="width:730px;height:1016px;background:#FFFFFF;" version="1.1" viewBox="0 0 730 1016" width="730px" zoomAndPan="magnify"><?plantuml 1.2026.3?><defs/><g><g class="title" data-source-line="1"><text fill="#000000" font-family="sans-serif" font-size="14" font-weight="700" lengthAdjust="spacing" textLength="179.7578" x="271.6709" y="24.5332">Library Database Overview</text></g><!--class users--><g class="entity" data-qualified-name="users" data-source-line="7" id="ent0002"><rect fill="#F1F1F1" height="136.0469" rx="2.5" ry="2.5" style="stroke:#181818;stroke-width:0.5;" width="110.0615" x="102" y="215.6094"/><ellipse cx="136.7222" cy="231.6094" fill="#ADD1B2" rx="11" ry="11" style="stroke:#181818;stroke-width:1;"/><path d="M135.5816,232.4063 L135.5816,234.9063 L139.9097,234.9063 L139.9097,233.9844 Q139.9097,233.375 140.1441,233.1094 Q140.3941,232.8438 140.7691,232.8438 Q141.1441,232.8438 141.3785,233.1094 Q141.6128,233.375 141.6128,233.9844 L141.6128,236.6094 L133.6128,236.6094 Q132.9878,236.6094 132.7222,236.375 Q132.4722,236.1406 132.4722,235.75 Q132.4722,235.375 132.7378,235.1406 Q133.0035,234.9063 133.6128,234.9063 L133.8785,234.9063 L133.8785,228.25 L133.6128,228.25 Q132.9878,228.25 132.7222,228.0156 Q132.4722,227.7813 132.4722,227.3906 Q132.4722,227.0156 132.7222,226.7813 Q132.9878,226.5469 133.6128,226.5469 L141.2378,226.5469 L141.2378,229.1406 Q141.2378,229.75 141.0035,230.0156 Q140.7847,230.2656 140.3941,230.2656 Q140.0191,230.2656 139.7847,230.0156 Q139.5503,229.75 139.5503,229.1406 L139.5503,228.25 L135.5816,228.25 L135.5816,230.7031 L137.066,230.7031 Q137.066,230.0469 137.191,229.8594 Q137.4566,229.4531 137.9253,229.4531 Q138.3003,229.4531 138.5347,229.7188 Q138.7691,229.9688 138.7691,230.5781 L138.7691,232.5469 Q138.7691,233.0938 138.6441,233.2813 Q138.3785,233.6719 137.9253,233.6719 Q137.4566,233.6719 137.191,233.2656 Q137.066,233.0781 137.066,232.4063 L135.5816,232.4063 Z " fill="#000000"/><text fill="#000000" font-family="sans-serif" font-size="14" lengthAdjust="spacing" textLength="34.2344" x="155.1049" y="237.3379">users</text><line style="stroke:#181818;stroke-width:0.5;" x1="103" x2="211.0615" y1="247.6094" y2="247.6094"/><g data-visibility-modifier="IE_MANDATORY"><ellipse cx="113" cy="261.9141" fill="#000000" rx="3" ry="3" style="stroke:#000000;stroke-width:1;"/></g><text fill="#000000" font-family="sans-serif" font-size="14" lengthAdjust="spacing" textLength="80.1377" x="122" y="266.1426">user_id : INT</text><line style="stroke:#181818;stroke-width:1;" x1="103" x2="211.0615" y1="273.2188" y2="273.2188"/><text fill="#000000" font-family="sans-serif" font-size="14" lengthAdjust="spacing" textLength="62.2549" x="108" y="291.752">username</text><text fill="#000000" font-family="sans-serif" font-size="14" lengthAdjust="spacing" textLength="98.0615" x="108" y="309.3613">password_hash</text><text fill="#000000" font-family="sans-serif" font-size="14" lengthAdjust="spacing" textLength="23.3447" x="108" y="326.9707">role</text><text fill="#000000" font-family="sans-serif" font-size="14" lengthAdjust="spacing" textLength="36.5723" x="108" y="344.5801">active</text></g><!--class members--><g class="entity" data-qualified-name="members" data-source-line="16" id="ent0003"><rect fill="#F1F1F1" height="136.0469" rx="2.5" ry="2.5" style="stroke:#181818;stroke-width:0.5;" width="144.2822" x="170" y="420.6094"/><ellipse cx="209.2719" cy="436.6094" fill="#ADD1B2" rx="11" ry="11" style="stroke:#181818;stroke-width:1;"/><path d="M208.1313,437.4063 L208.1313,439.9063 L212.4594,439.9063 L212.4594,438.9844 Q212.4594,438.375 212.6938,438.1094 Q212.9438,437.8438 213.3188,437.8438 Q213.6938,437.8438 213.9281,438.1094 Q214.1625,438.375 214.1625,438.9844 L214.1625,441.6094 L206.1625,441.6094 Q205.5375,441.6094 205.2719,441.375 Q205.0219,441.1406 205.0219,440.75 Q205.0219,440.375 205.2875,440.1406 Q205.5531,439.9063 206.1625,439.9063 L206.4281,439.9063 L206.4281,433.25 L206.1625,433.25 Q205.5375,433.25 205.2719,433.0156 Q205.0219,432.7813 205.0219,432.3906 Q205.0219,432.0156 205.2719,431.7813 Q205.5375,431.5469 206.1625,431.5469 L213.7875,431.5469 L213.7875,434.1406 Q213.7875,434.75 213.5531,435.0156 Q213.3344,435.2656 212.9438,435.2656 Q212.5688,435.2656 212.3344,435.0156 Q212.1,434.75 212.1,434.1406 L212.1,433.25 L208.1313,433.25 L208.1313,435.7031 L209.6156,435.7031 Q209.6156,435.0469 209.7406,434.8594 Q210.0063,434.4531 210.475,434.4531 Q210.85,434.4531 211.0844,434.7188 Q211.3188,434.9688 211.3188,435.5781 L211.3188,437.5469 Q211.3188,438.0938 211.1938,438.2813 Q210.9281,438.6719 210.475,438.6719 Q210.0063,438.6719 209.7406,438.2656 Q209.6156,438.0781 209.6156,437.4063 L208.1313,437.4063 Z " fill="#000000"/><text fill="#000000" font-family="sans-serif" font-size="14" lengthAdjust="spacing" textLength="58.3447" x="228.6656" y="442.3379">members</text><line style="stroke:#181818;stroke-width:0.5;" x1="171" x2="313.2822" y1="452.6094" y2="452.6094"/><g data-visibility-modifier="IE_MANDATORY"><ellipse cx="181" cy="466.9141" fill="#000000" rx="3" ry="3" style="stroke:#000000;stroke-width:1;"/></g><text fill="#000000" font-family="sans-serif" font-size="14" lengthAdjust="spacing" textLength="104.248" x="190" y="471.1426">member_id : INT</text><line style="stroke:#181818;stroke-width:1;" x1="171" x2="313.2822" y1="478.2188" y2="478.2188"/><text fill="#000000" font-family="sans-serif" font-size="14" lengthAdjust="spacing" textLength="132.2822" x="176" y="496.752">membership_number</text><text fill="#000000" font-family="sans-serif" font-size="14" lengthAdjust="spacing" textLength="49.8066" x="176" y="514.3613">address</text><text fill="#000000" font-family="sans-serif" font-size="14" lengthAdjust="spacing" textLength="104.2891" x="176" y="531.9707">registration_date</text><text fill="#000000" font-family="sans-serif" font-size="14" lengthAdjust="spacing" textLength="67.7031" x="176" y="549.5801">max_loans</text></g><!--class staff--><g class="entity" data-qualified-name="staff" data-source-line="25" id="ent0004"><rect fill="#F1F1F1" height="100.8281" rx="2.5" ry="2.5" style="stroke:#181818;stroke-width:0.5;" width="127.958" x="7" y="438.1094"/><ellipse cx="53.5015" cy="454.1094" fill="#ADD1B2" rx="11" ry="11" style="stroke:#181818;stroke-width:1;"/><path d="M52.3608,454.9063 L52.3608,457.4063 L56.689,457.4063 L56.689,456.4844 Q56.689,455.875 56.9233,455.6094 Q57.1733,455.3438 57.5483,455.3438 Q57.9233,455.3438 58.1577,455.6094 Q58.3921,455.875 58.3921,456.4844 L58.3921,459.1094 L50.3921,459.1094 Q49.7671,459.1094 49.5015,458.875 Q49.2515,458.6406 49.2515,458.25 Q49.2515,457.875 49.5171,457.6406 Q49.7827,457.4063 50.3921,457.4063 L50.6577,457.4063 L50.6577,450.75 L50.3921,450.75 Q49.7671,450.75 49.5015,450.5156 Q49.2515,450.2813 49.2515,449.8906 Q49.2515,449.5156 49.5015,449.2813 Q49.7671,449.0469 50.3921,449.0469 L58.0171,449.0469 L58.0171,451.6406 Q58.0171,452.25 57.7827,452.5156 Q57.564,452.7656 57.1733,452.7656 Q56.7983,452.7656 56.564,452.5156 Q56.3296,452.25 56.3296,451.6406 L56.3296,450.75 L52.3608,450.75 L52.3608,453.2031 L53.8452,453.2031 Q53.8452,452.5469 53.9702,452.3594 Q54.2358,451.9531 54.7046,451.9531 Q55.0796,451.9531 55.314,452.2188 Q55.5483,452.4688 55.5483,453.0781 L55.5483,455.0469 Q55.5483,455.5938 55.4233,455.7813 Q55.1577,456.1719 54.7046,456.1719 Q54.2358,456.1719 53.9702,455.7656 Q53.8452,455.5781 53.8452,454.9063 L52.3608,454.9063 Z " fill="#000000"/><text fill="#000000" font-family="sans-serif" font-size="14" lengthAdjust="spacing" textLength="26.4551" x="74.0015" y="459.8379">staff</text><line style="stroke:#181818;stroke-width:0.5;" x1="8" x2="133.958" y1="470.1094" y2="470.1094"/><g data-visibility-modifier="IE_MANDATORY"><ellipse cx="18" cy="484.4141" fill="#000000" rx="3" ry="3" style="stroke:#000000;stroke-width:1;"/></g><text fill="#000000" font-family="sans-serif" font-size="14" lengthAdjust="spacing" textLength="79.3584" x="27" y="488.6426">staff_id : INT</text><line style="stroke:#181818;stroke-width:1;" x1="8" x2="133.958" y1="495.7188" y2="495.7188"/><text fill="#000000" font-family="sans-serif" font-size="14" lengthAdjust="spacing" textLength="115.958" x="13" y="514.252">employee_number</text><text fill="#000000" font-family="sans-serif" font-size="14" lengthAdjust="spacing" textLength="58.3789" x="13" y="531.8613">hire_date</text></g><!--class categories--><g class="entity" data-qualified-name="categories" data-source-line="32" id="ent0005"><rect fill="#F1F1F1" height="100.8281" rx="2.5" ry="2.5" style="stroke:#181818;stroke-width:0.5;" width="132.5996" x="437.5" y="45.6094"/><ellipse cx="468.7031" cy="61.6094" fill="#ADD1B2" rx="11" ry="11" style="stroke:#181818;stroke-width:1;"/><path d="M467.5625,62.4063 L467.5625,64.9063 L471.8906,64.9063 L471.8906,63.9844 Q471.8906,63.375 472.125,63.1094 Q472.375,62.8438 472.75,62.8438 Q473.125,62.8438 473.3593,63.1094 Q473.5937,63.375 473.5937,63.9844 L473.5937,66.6094 L465.5937,66.6094 Q464.9687,66.6094 464.7031,66.375 Q464.4531,66.1406 464.4531,65.75 Q464.4531,65.375 464.7187,65.1406 Q464.9843,64.9063 465.5937,64.9063 L465.8593,64.9063 L465.8593,58.25 L465.5937,58.25 Q464.9687,58.25 464.7031,58.0156 Q464.4531,57.7813 464.4531,57.3906 Q464.4531,57.0156 464.7031,56.7813 Q464.9687,56.5469 465.5937,56.5469 L473.2187,56.5469 L473.2187,59.1406 Q473.2187,59.75 472.9843,60.0156 Q472.7656,60.2656 472.375,60.2656 Q472,60.2656 471.7656,60.0156 Q471.5312,59.75 471.5312,59.1406 L471.5312,58.25 L467.5625,58.25 L467.5625,60.7031 L469.0468,60.7031 Q469.0468,60.0469 469.1718,59.8594 Q469.4375,59.4531 469.9062,59.4531 Q470.2812,59.4531 470.5156,59.7188 Q470.75,59.9688 470.75,60.5781 L470.75,62.5469 Q470.75,63.0938 470.625,63.2813 Q470.3593,63.6719 469.9062,63.6719 Q469.4375,63.6719 469.1718,63.2656 Q469.0468,63.0781 469.0468,62.4063 L467.5625,62.4063 Z " fill="#000000"/><text fill="#000000" font-family="sans-serif" font-size="14" lengthAdjust="spacing" textLength="64.5928" x="486.3038" y="67.3379">categories</text><line style="stroke:#181818;stroke-width:0.5;" x1="438.5" x2="569.0996" y1="77.6094" y2="77.6094"/><g data-visibility-modifier="IE_MANDATORY"><ellipse cx="448.5" cy="91.9141" fill="#000000" rx="3" ry="3" style="stroke:#000000;stroke-width:1;"/></g><text fill="#000000" font-family="sans-serif" font-size="14" lengthAdjust="spacing" textLength="106.5996" x="457.5" y="96.1426">category_id : INT</text><line style="stroke:#181818;stroke-width:1;" x1="438.5" x2="569.0996" y1="103.2188" y2="103.2188"/><text fill="#000000" font-family="sans-serif" font-size="14" lengthAdjust="spacing" textLength="35.0205" x="443.5" y="121.752">name</text><text fill="#000000" font-family="sans-serif" font-size="14" lengthAdjust="spacing" textLength="67.7031" x="443.5" y="139.3613">description</text></g><!--class authors--><g class="entity" data-qualified-name="authors" data-source-line="39" id="ent0006"><rect fill="#F1F1F1" height="100.8281" rx="2.5" ry="2.5" style="stroke:#181818;stroke-width:0.5;" width="118.5996" x="596.5" y="233.1094"/><ellipse cx="629.4565" cy="249.1094" fill="#ADD1B2" rx="11" ry="11" style="stroke:#181818;stroke-width:1;"/><path d="M628.3159,249.9063 L628.3159,252.4063 L632.644,252.4063 L632.644,251.4844 Q632.644,250.875 632.8784,250.6094 Q633.1284,250.3438 633.5034,250.3438 Q633.8784,250.3438 634.1127,250.6094 Q634.3471,250.875 634.3471,251.4844 L634.3471,254.1094 L626.3471,254.1094 Q625.7221,254.1094 625.4565,253.875 Q625.2065,253.6406 625.2065,253.25 Q625.2065,252.875 625.4721,252.6406 Q625.7377,252.4063 626.3471,252.4063 L626.6127,252.4063 L626.6127,245.75 L626.3471,245.75 Q625.7221,245.75 625.4565,245.5156 Q625.2065,245.2813 625.2065,244.8906 Q625.2065,244.5156 625.4565,244.2813 Q625.7221,244.0469 626.3471,244.0469 L633.9721,244.0469 L633.9721,246.6406 Q633.9721,247.25 633.7377,247.5156 Q633.519,247.7656 633.1284,247.7656 Q632.7534,247.7656 632.519,247.5156 Q632.2846,247.25 632.2846,246.6406 L632.2846,245.75 L628.3159,245.75 L628.3159,248.2031 L629.8002,248.2031 Q629.8002,247.5469 629.9252,247.3594 Q630.1909,246.9531 630.6596,246.9531 Q631.0346,246.9531 631.269,247.2188 Q631.5034,247.4688 631.5034,248.0781 L631.5034,250.0469 Q631.5034,250.5938 631.3784,250.7813 Q631.1127,251.1719 630.6596,251.1719 Q630.1909,251.1719 629.9252,250.7656 Q629.8002,250.5781 629.8002,249.9063 L628.3159,249.9063 Z " fill="#000000"/><text fill="#000000" font-family="sans-serif" font-size="14" lengthAdjust="spacing" textLength="46.6963" x="647.4468" y="254.8379">authors</text><line style="stroke:#181818;stroke-width:0.5;" x1="597.5" x2="714.0996" y1="265.1094" y2="265.1094"/><g data-visibility-modifier="IE_MANDATORY"><ellipse cx="607.5" cy="279.4141" fill="#000000" rx="3" ry="3" style="stroke:#000000;stroke-width:1;"/></g><text fill="#000000" font-family="sans-serif" font-size="14" lengthAdjust="spacing" textLength="92.5996" x="616.5" y="283.6426">author_id : INT</text><line style="stroke:#181818;stroke-width:1;" x1="597.5" x2="714.0996" y1="290.7188" y2="290.7188"/><text fill="#000000" font-family="sans-serif" font-size="14" lengthAdjust="spacing" textLength="65.3584" x="602.5" y="309.252">first_name</text><text fill="#000000" font-family="sans-serif" font-size="14" lengthAdjust="spacing" textLength="64.5928" x="602.5" y="326.8613">last_name</text></g><!--class books--><g class="entity" data-qualified-name="books" data-source-line="46" id="ent0007"><rect fill="#F1F1F1" height="153.6563" rx="2.5" ry="2.5" style="stroke:#181818;stroke-width:0.5;" width="113.958" x="447" y="206.6094"/><ellipse cx="482.0698" cy="222.6094" fill="#ADD1B2" rx="11" ry="11" style="stroke:#181818;stroke-width:1;"/><path d="M480.9292,223.4063 L480.9292,225.9063 L485.2573,225.9063 L485.2573,224.9844 Q485.2573,224.375 485.4917,224.1094 Q485.7417,223.8438 486.1167,223.8438 Q486.4917,223.8438 486.7261,224.1094 Q486.9604,224.375 486.9604,224.9844 L486.9604,227.6094 L478.9604,227.6094 Q478.3354,227.6094 478.0698,227.375 Q477.8198,227.1406 477.8198,226.75 Q477.8198,226.375 478.0854,226.1406 Q478.3511,225.9063 478.9604,225.9063 L479.2261,225.9063 L479.2261,219.25 L478.9604,219.25 Q478.3354,219.25 478.0698,219.0156 Q477.8198,218.7813 477.8198,218.3906 Q477.8198,218.0156 478.0698,217.7813 Q478.3354,217.5469 478.9604,217.5469 L486.5854,217.5469 L486.5854,220.1406 Q486.5854,220.75 486.3511,221.0156 Q486.1323,221.2656 485.7417,221.2656 Q485.3667,221.2656 485.1323,221.0156 Q484.8979,220.75 484.8979,220.1406 L484.8979,219.25 L480.9292,219.25 L480.9292,221.7031 L482.4136,221.7031 Q482.4136,221.0469 482.5386,220.8594 Q482.8042,220.4531 483.2729,220.4531 Q483.6479,220.4531 483.8823,220.7188 Q484.1167,220.9688 484.1167,221.5781 L484.1167,223.5469 Q484.1167,224.0938 483.9917,224.2813 Q483.7261,224.6719 483.2729,224.6719 Q482.8042,224.6719 482.5386,224.2656 Q482.4136,224.0781 482.4136,223.4063 L480.9292,223.4063 Z " fill="#000000"/><text fill="#000000" font-family="sans-serif" font-size="14" lengthAdjust="spacing" textLength="37.3584" x="500.5298" y="228.3379">books</text><line style="stroke:#181818;stroke-width:0.5;" x1="448" x2="559.958" y1="238.6094" y2="238.6094"/><g data-visibility-modifier="IE_MANDATORY"><ellipse cx="458" cy="252.9141" fill="#000000" rx="3" ry="3" style="stroke:#000000;stroke-width:1;"/></g><text fill="#000000" font-family="sans-serif" font-size="14" lengthAdjust="spacing" textLength="83.2617" x="467" y="257.1426">book_id : INT</text><line style="stroke:#181818;stroke-width:1;" x1="448" x2="559.958" y1="264.2188" y2="264.2188"/><text fill="#000000" font-family="sans-serif" font-size="14" lengthAdjust="spacing" textLength="25.6826" x="453" y="282.752">isbn</text><text fill="#000000" font-family="sans-serif" font-size="14" lengthAdjust="spacing" textLength="21.7861" x="453" y="300.3613">title</text><text fill="#000000" font-family="sans-serif" font-size="14" lengthAdjust="spacing" textLength="56.8135" x="453" y="317.9707">publisher</text><text fill="#000000" font-family="sans-serif" font-size="14" lengthAdjust="spacing" textLength="101.958" x="453" y="335.5801">publication_year</text><text fill="#000000" font-family="sans-serif" font-size="14" lengthAdjust="spacing" textLength="72.3789" x="453" y="353.1895">category_id</text></g><!--class book_authors--><g class="entity" data-qualified-name="book_authors" data-source-line="56" id="ent0008"><rect fill="#F1F1F1" height="75.2188" rx="2.5" ry="2.5" style="stroke:#181818;stroke-width:0.5;" width="118.5996" x="586.5" y="451.1094"/><ellipse cx="602.2915" cy="467.1094" fill="#ADD1B2" rx="11" ry="11" style="stroke:#181818;stroke-width:1;"/><path d="M601.1508,467.9063 L601.1508,470.4063 L605.479,470.4063 L605.479,469.4844 Q605.479,468.875 605.7133,468.6094 Q605.9633,468.3438 606.3383,468.3438 Q606.7133,468.3438 606.9477,468.6094 Q607.1821,468.875 607.1821,469.4844 L607.1821,472.1094 L599.1821,472.1094 Q598.5571,472.1094 598.2915,471.875 Q598.0415,471.6406 598.0415,471.25 Q598.0415,470.875 598.3071,470.6406 Q598.5727,470.4063 599.1821,470.4063 L599.4477,470.4063 L599.4477,463.75 L599.1821,463.75 Q598.5571,463.75 598.2915,463.5156 Q598.0415,463.2813 598.0415,462.8906 Q598.0415,462.5156 598.2915,462.2813 Q598.5571,462.0469 599.1821,462.0469 L606.8071,462.0469 L606.8071,464.6406 Q606.8071,465.25 606.5727,465.5156 Q606.354,465.7656 605.9633,465.7656 Q605.5883,465.7656 605.354,465.5156 Q605.1196,465.25 605.1196,464.6406 L605.1196,463.75 L601.1508,463.75 L601.1508,466.2031 L602.6352,466.2031 Q602.6352,465.5469 602.7602,465.3594 Q603.0258,464.9531 603.4946,464.9531 Q603.8696,464.9531 604.104,465.2188 Q604.3383,465.4688 604.3383,466.0781 L604.3383,468.0469 Q604.3383,468.5938 604.2133,468.7813 Q603.9477,469.1719 603.4946,469.1719 Q603.0258,469.1719 602.7602,468.7656 Q602.6352,468.5781 602.6352,467.9063 L601.1508,467.9063 Z " fill="#000000"/><text fill="#000000" font-family="sans-serif" font-size="14" lengthAdjust="spacing" textLength="84.8408" x="616.4673" y="472.8379">book_authors</text><line style="stroke:#181818;stroke-width:0.5;" x1="587.5" x2="704.0996" y1="483.1094" y2="483.1094"/><g data-visibility-modifier="IE_MANDATORY"><ellipse cx="597.5" cy="497.4141" fill="#000000" rx="3" ry="3" style="stroke:#000000;stroke-width:1;"/></g><text fill="#000000" font-family="sans-serif" font-size="14" lengthAdjust="spacing" textLength="83.2617" x="606.5" y="501.6426">book_id : INT</text><g data-visibility-modifier="IE_MANDATORY"><ellipse cx="597.5" cy="515.0234" fill="#000000" rx="3" ry="3" style="stroke:#000000;stroke-width:1;"/></g><text fill="#000000" font-family="sans-serif" font-size="14" lengthAdjust="spacing" textLength="92.5996" x="606.5" y="519.252">author_id : INT</text></g><!--class book_copies--><g class="entity" data-qualified-name="book_copies" data-source-line="61" id="ent0009"><rect fill="#F1F1F1" height="118.4375" rx="2.5" ry="2.5" style="stroke:#181818;stroke-width:0.5;" width="110.6133" x="349.5" y="429.6094"/><ellipse cx="364.5" cy="445.6094" fill="#ADD1B2" rx="11" ry="11" style="stroke:#181818;stroke-width:1;"/><path d="M363.3594,446.4063 L363.3594,448.9063 L367.6875,448.9063 L367.6875,447.9844 Q367.6875,447.375 367.9219,447.1094 Q368.1719,446.8438 368.5469,446.8438 Q368.9219,446.8438 369.1563,447.1094 Q369.3906,447.375 369.3906,447.9844 L369.3906,450.6094 L361.3906,450.6094 Q360.7656,450.6094 360.5,450.375 Q360.25,450.1406 360.25,449.75 Q360.25,449.375 360.5156,449.1406 Q360.7813,448.9063 361.3906,448.9063 L361.6563,448.9063 L361.6563,442.25 L361.3906,442.25 Q360.7656,442.25 360.5,442.0156 Q360.25,441.7813 360.25,441.3906 Q360.25,441.0156 360.5,440.7813 Q360.7656,440.5469 361.3906,440.5469 L369.0156,440.5469 L369.0156,443.1406 Q369.0156,443.75 368.7813,444.0156 Q368.5625,444.2656 368.1719,444.2656 Q367.7969,444.2656 367.5625,444.0156 Q367.3281,443.75 367.3281,443.1406 L367.3281,442.25 L363.3594,442.25 L363.3594,444.7031 L364.8438,444.7031 Q364.8438,444.0469 364.9688,443.8594 Q365.2344,443.4531 365.7031,443.4531 Q366.0781,443.4531 366.3125,443.7188 Q366.5469,443.9688 366.5469,444.5781 L366.5469,446.5469 Q366.5469,447.0938 366.4219,447.2813 Q366.1563,447.6719 365.7031,447.6719 Q365.2344,447.6719 364.9688,447.2656 Q364.8438,447.0781 364.8438,446.4063 L363.3594,446.4063 Z " fill="#000000"/><text fill="#000000" font-family="sans-serif" font-size="14" lengthAdjust="spacing" textLength="78.6133" x="378.5" y="451.3379">book_copies</text><line style="stroke:#181818;stroke-width:0.5;" x1="350.5" x2="459.1133" y1="461.6094" y2="461.6094"/><g data-visibility-modifier="IE_MANDATORY"><ellipse cx="360.5" cy="475.9141" fill="#000000" rx="3" ry="3" style="stroke:#000000;stroke-width:1;"/></g><text fill="#000000" font-family="sans-serif" font-size="14" lengthAdjust="spacing" textLength="82.4756" x="369.5" y="480.1426">copy_id : INT</text><line style="stroke:#181818;stroke-width:1;" x1="350.5" x2="459.1133" y1="487.2188" y2="487.2188"/><text fill="#000000" font-family="sans-serif" font-size="14" lengthAdjust="spacing" textLength="49.041" x="355.5" y="505.752">book_id</text><text fill="#000000" font-family="sans-serif" font-size="14" lengthAdjust="spacing" textLength="50.5928" x="355.5" y="523.3613">barcode</text><text fill="#000000" font-family="sans-serif" font-size="14" lengthAdjust="spacing" textLength="37.3516" x="355.5" y="540.9707">status</text></g><!--class loans--><g class="entity" data-qualified-name="loans" data-source-line="69" id="ent0010"><rect fill="#F1F1F1" height="188.875" rx="2.5" ry="2.5" style="stroke:#181818;stroke-width:0.5;" width="105.3721" x="189.5" y="616.6094"/><ellipse cx="222.4565" cy="632.6094" fill="#ADD1B2" rx="11" ry="11" style="stroke:#181818;stroke-width:1;"/><path d="M221.3159,633.4063 L221.3159,635.9063 L225.644,635.9063 L225.644,634.9844 Q225.644,634.375 225.8784,634.1094 Q226.1284,633.8438 226.5034,633.8438 Q226.8784,633.8438 227.1127,634.1094 Q227.3471,634.375 227.3471,634.9844 L227.3471,637.6094 L219.3471,637.6094 Q218.7221,637.6094 218.4565,637.375 Q218.2065,637.1406 218.2065,636.75 Q218.2065,636.375 218.4721,636.1406 Q218.7377,635.9063 219.3471,635.9063 L219.6127,635.9063 L219.6127,629.25 L219.3471,629.25 Q218.7221,629.25 218.4565,629.0156 Q218.2065,628.7813 218.2065,628.3906 Q218.2065,628.0156 218.4565,627.7813 Q218.7221,627.5469 219.3471,627.5469 L226.9721,627.5469 L226.9721,630.1406 Q226.9721,630.75 226.7377,631.0156 Q226.519,631.2656 226.1284,631.2656 Q225.7534,631.2656 225.519,631.0156 Q225.2846,630.75 225.2846,630.1406 L225.2846,629.25 L221.3159,629.25 L221.3159,631.7031 L222.8002,631.7031 Q222.8002,631.0469 222.9252,630.8594 Q223.1909,630.4531 223.6596,630.4531 Q224.0346,630.4531 224.269,630.7188 Q224.5034,630.9688 224.5034,631.5781 L224.5034,633.5469 Q224.5034,634.0938 224.3784,634.2813 Q224.1127,634.6719 223.6596,634.6719 Q223.1909,634.6719 222.9252,634.2656 Q222.8002,634.0781 222.8002,633.4063 L221.3159,633.4063 Z " fill="#000000"/><text fill="#000000" font-family="sans-serif" font-size="14" lengthAdjust="spacing" textLength="33.4688" x="240.4468" y="638.3379">loans</text><line style="stroke:#181818;stroke-width:0.5;" x1="190.5" x2="293.8721" y1="648.6094" y2="648.6094"/><g data-visibility-modifier="IE_MANDATORY"><ellipse cx="200.5" cy="662.9141" fill="#000000" rx="3" ry="3" style="stroke:#000000;stroke-width:1;"/></g><text fill="#000000" font-family="sans-serif" font-size="14" lengthAdjust="spacing" textLength="79.3721" x="209.5" y="667.1426">loan_id : INT</text><line style="stroke:#181818;stroke-width:1;" x1="190.5" x2="293.8721" y1="674.2188" y2="674.2188"/><text fill="#000000" font-family="sans-serif" font-size="14" lengthAdjust="spacing" textLength="48.2549" x="195.5" y="692.752">copy_id</text><text fill="#000000" font-family="sans-serif" font-size="14" lengthAdjust="spacing" textLength="70.0273" x="195.5" y="710.3613">member_id</text><text fill="#000000" font-family="sans-serif" font-size="14" lengthAdjust="spacing" textLength="68.4824" x="195.5" y="727.9707">librarian_id</text><text fill="#000000" font-family="sans-serif" font-size="14" lengthAdjust="spacing" textLength="77.8271" x="195.5" y="745.5801">borrow_date</text><text fill="#000000" font-family="sans-serif" font-size="14" lengthAdjust="spacing" textLength="58.3926" x="195.5" y="763.1895">due_date</text><text fill="#000000" font-family="sans-serif" font-size="14" lengthAdjust="spacing" textLength="71.6064" x="195.5" y="780.7988">return_date</text><text fill="#000000" font-family="sans-serif" font-size="14" lengthAdjust="spacing" textLength="37.3516" x="195.5" y="798.4082">status</text></g><!--class fines--><g class="entity" data-qualified-name="fines" data-source-line="81" id="ent0011"><rect fill="#F1F1F1" height="136.0469" rx="2.5" ry="2.5" style="stroke:#181818;stroke-width:0.5;" width="101.4756" x="191.5" y="865.6094"/><ellipse cx="224.4565" cy="881.6094" fill="#ADD1B2" rx="11" ry="11" style="stroke:#181818;stroke-width:1;"/><path d="M223.3159,882.4063 L223.3159,884.9063 L227.644,884.9063 L227.644,883.9844 Q227.644,883.375 227.8784,883.1094 Q228.1284,882.8438 228.5034,882.8438 Q228.8784,882.8438 229.1127,883.1094 Q229.3471,883.375 229.3471,883.9844 L229.3471,886.6094 L221.3471,886.6094 Q220.7221,886.6094 220.4565,886.375 Q220.2065,886.1406 220.2065,885.75 Q220.2065,885.375 220.4721,885.1406 Q220.7377,884.9063 221.3471,884.9063 L221.6127,884.9063 L221.6127,878.25 L221.3471,878.25 Q220.7221,878.25 220.4565,878.0156 Q220.2065,877.7813 220.2065,877.3906 Q220.2065,877.0156 220.4565,876.7813 Q220.7221,876.5469 221.3471,876.5469 L228.9721,876.5469 L228.9721,879.1406 Q228.9721,879.75 228.7377,880.0156 Q228.519,880.2656 228.1284,880.2656 Q227.7534,880.2656 227.519,880.0156 Q227.2846,879.75 227.2846,879.1406 L227.2846,878.25 L223.3159,878.25 L223.3159,880.7031 L224.8002,880.7031 Q224.8002,880.0469 224.9252,879.8594 Q225.1909,879.4531 225.6596,879.4531 Q226.0346,879.4531 226.269,879.7188 Q226.5034,879.9688 226.5034,880.5781 L226.5034,882.5469 Q226.5034,883.0938 226.3784,883.2813 Q226.1127,883.6719 225.6596,883.6719 Q225.1909,883.6719 224.9252,883.2656 Q224.8002,883.0781 224.8002,882.4063 L223.3159,882.4063 Z " fill="#000000"/><text fill="#000000" font-family="sans-serif" font-size="14" lengthAdjust="spacing" textLength="29.5723" x="242.4468" y="887.3379">fines</text><line style="stroke:#181818;stroke-width:0.5;" x1="192.5" x2="291.9756" y1="897.6094" y2="897.6094"/><g data-visibility-modifier="IE_MANDATORY"><ellipse cx="202.5" cy="911.9141" fill="#000000" rx="3" ry="3" style="stroke:#000000;stroke-width:1;"/></g><text fill="#000000" font-family="sans-serif" font-size="14" lengthAdjust="spacing" textLength="75.4756" x="211.5" y="916.1426">fine_id : INT</text><line style="stroke:#181818;stroke-width:1;" x1="192.5" x2="291.9756" y1="923.2188" y2="923.2188"/><text fill="#000000" font-family="sans-serif" font-size="14" lengthAdjust="spacing" textLength="45.1514" x="197.5" y="941.752">loan_id</text><text fill="#000000" font-family="sans-serif" font-size="14" lengthAdjust="spacing" textLength="46.6963" x="197.5" y="959.3613">amount</text><text fill="#000000" font-family="sans-serif" font-size="14" lengthAdjust="spacing" textLength="42.8066" x="197.5" y="976.9707">reason</text><text fill="#000000" font-family="sans-serif" font-size="14" lengthAdjust="spacing" textLength="37.3516" x="197.5" y="994.5801">status</text></g><!--class reservations--><g class="entity" data-qualified-name="reservations" data-source-line="90" id="ent0012"><rect fill="#F1F1F1" height="153.6563" rx="2.5" ry="2.5" style="stroke:#181818;stroke-width:0.5;" width="148.1582" x="385" y="634.1094"/><ellipse cx="417.9565" cy="650.1094" fill="#ADD1B2" rx="11" ry="11" style="stroke:#181818;stroke-width:1;"/><path d="M416.8159,650.9063 L416.8159,653.4063 L421.144,653.4063 L421.144,652.4844 Q421.144,651.875 421.3784,651.6094 Q421.6284,651.3438 422.0034,651.3438 Q422.3784,651.3438 422.6127,651.6094 Q422.8471,651.875 422.8471,652.4844 L422.8471,655.1094 L414.8471,655.1094 Q414.2221,655.1094 413.9565,654.875 Q413.7065,654.6406 413.7065,654.25 Q413.7065,653.875 413.9721,653.6406 Q414.2377,653.4063 414.8471,653.4063 L415.1127,653.4063 L415.1127,646.75 L414.8471,646.75 Q414.2221,646.75 413.9565,646.5156 Q413.7065,646.2813 413.7065,645.8906 Q413.7065,645.5156 413.9565,645.2813 Q414.2221,645.0469 414.8471,645.0469 L422.4721,645.0469 L422.4721,647.6406 Q422.4721,648.25 422.2377,648.5156 Q422.019,648.7656 421.6284,648.7656 Q421.2534,648.7656 421.019,648.5156 Q420.7846,648.25 420.7846,647.6406 L420.7846,646.75 L416.8159,646.75 L416.8159,649.2031 L418.3002,649.2031 Q418.3002,648.5469 418.4252,648.3594 Q418.6909,647.9531 419.1596,647.9531 Q419.5346,647.9531 419.769,648.2188 Q420.0034,648.4688 420.0034,649.0781 L420.0034,651.0469 Q420.0034,651.5938 419.8784,651.7813 Q419.6127,652.1719 419.1596,652.1719 Q418.6909,652.1719 418.4252,651.7656 Q418.3002,651.5781 418.3002,650.9063 L416.8159,650.9063 Z " fill="#000000"/><text fill="#000000" font-family="sans-serif" font-size="14" lengthAdjust="spacing" textLength="76.2549" x="435.9468" y="655.8379">reservations</text><line style="stroke:#181818;stroke-width:0.5;" x1="386" x2="532.1582" y1="666.1094" y2="666.1094"/><g data-visibility-modifier="IE_MANDATORY"><ellipse cx="396" cy="680.4141" fill="#000000" rx="3" ry="3" style="stroke:#000000;stroke-width:1;"/></g><text fill="#000000" font-family="sans-serif" font-size="14" lengthAdjust="spacing" textLength="122.1582" x="405" y="684.6426">reservation_id : INT</text><line style="stroke:#181818;stroke-width:1;" x1="386" x2="532.1582" y1="691.7188" y2="691.7188"/><text fill="#000000" font-family="sans-serif" font-size="14" lengthAdjust="spacing" textLength="49.041" x="391" y="710.252">book_id</text><text fill="#000000" font-family="sans-serif" font-size="14" lengthAdjust="spacing" textLength="70.0273" x="391" y="727.8613">member_id</text><text fill="#000000" font-family="sans-serif" font-size="14" lengthAdjust="spacing" textLength="104.2891" x="391" y="745.4707">reservation_date</text><text fill="#000000" font-family="sans-serif" font-size="14" lengthAdjust="spacing" textLength="72.3789" x="391" y="763.0801">expiry_date</text><text fill="#000000" font-family="sans-serif" font-size="14" lengthAdjust="spacing" textLength="37.3516" x="391" y="780.6895">status</text></g><!--link users to members--><g class="link" data-entity-1="ent0002" data-entity-2="ent0003" data-link-type="association" data-source-line="100" id="lnk13"><path codeLine="100" d="M191,359.8694 C191,381.8894 191,383.2794 191,405.2994" fill="none" id="users-members" style="stroke:#181818;stroke-width:1;"/><line style="stroke:#181818;stroke-width:1;" x1="187" x2="195" y1="355.8694" y2="355.8694"/><line style="stroke:#181818;stroke-width:1;" x1="187" x2="195" y1="358.8694" y2="358.8694"/><line style="stroke:#181818;stroke-width:1;" x1="191" x2="191" y1="359.8694" y2="351.8694"/><line style="stroke:#181818;stroke-width:1;" x1="191" x2="191" y1="409.2994" y2="420.2994"/><ellipse cx="191" cy="409.2994" fill="none" rx="4" ry="4" style="stroke:#181818;stroke-width:1;"/><line style="stroke:#181818;stroke-width:1;" x1="195" x2="187" y1="416.2994" y2="416.2994"/></g><!--link users to staff--><g class="link" data-entity-1="ent0002" data-entity-2="ent0004" data-link-type="association" data-source-line="101" id="lnk14"><path codeLine="101" d="M118.5,359.8694 C118.5,387.9394 118.5,396.8794 118.5,422.8294" fill="none" id="users-staff" style="stroke:#181818;stroke-width:1;"/><line style="stroke:#181818;stroke-width:1;" x1="114.5" x2="122.5" y1="355.8694" y2="355.8694"/><line style="stroke:#181818;stroke-width:1;" x1="114.5" x2="122.5" y1="358.8694" y2="358.8694"/><line style="stroke:#181818;stroke-width:1;" x1="118.5" x2="118.5" y1="359.8694" y2="351.8694"/><line style="stroke:#181818;stroke-width:1;" x1="118.5" x2="118.5" y1="426.8294" y2="437.8294"/><ellipse cx="118.5" cy="426.8294" fill="none" rx="4" ry="4" style="stroke:#181818;stroke-width:1;"/><line style="stroke:#181818;stroke-width:1;" x1="122.5" x2="114.5" y1="433.8294" y2="433.8294"/></g><!--link categories to books--><g class="link" data-entity-1="ent0005" data-entity-2="ent0007" data-link-type="crowfoot" data-source-line="102" id="lnk15"><path codeLine="102" d="M504,154.8494 C504,173.1794 504,168.3094 504,188.3894" fill="none" id="categories-books" style="stroke:#181818;stroke-width:1;"/><line style="stroke:#181818;stroke-width:1;" x1="500" x2="508" y1="150.8494" y2="150.8494"/><line style="stroke:#181818;stroke-width:1;" x1="500" x2="508" y1="153.8494" y2="153.8494"/><line style="stroke:#181818;stroke-width:1;" x1="504" x2="504" y1="154.8494" y2="146.8494"/><line style="stroke:#181818;stroke-width:1;" x1="504" x2="510" y1="198.3894" y2="206.3894"/><line style="stroke:#181818;stroke-width:1;" x1="504" x2="498" y1="198.3894" y2="206.3894"/><line style="stroke:#181818;stroke-width:1;" x1="504" x2="504" y1="198.3894" y2="206.3894"/><ellipse cx="504" cy="192.3894" fill="none" rx="4" ry="4" style="stroke:#181818;stroke-width:1;"/></g><!--link books to book_authors--><g class="link" data-entity-1="ent0007" data-entity-2="ent0008" data-link-type="crowfoot" data-source-line="103" id="lnk16"><path codeLine="103" d="M569.39,347.6094 C585.88,347.6094 591.5,347.6094 591.5,347.6094 C591.5,347.6094 591.5,391.0594 591.5,432.8194" fill="none" id="books-book_authors" style="stroke:#181818;stroke-width:1;"/><line style="stroke:#181818;stroke-width:1;" x1="565.39" x2="565.39" y1="351.6094" y2="343.6094"/><line style="stroke:#181818;stroke-width:1;" x1="568.39" x2="568.39" y1="351.6094" y2="343.6094"/><line style="stroke:#181818;stroke-width:1;" x1="569.39" x2="561.39" y1="347.6094" y2="347.6094"/><line style="stroke:#181818;stroke-width:1;" x1="591.5" x2="597.5" y1="442.8194" y2="450.8194"/><line style="stroke:#181818;stroke-width:1;" x1="591.5" x2="585.5" y1="442.8194" y2="450.8194"/><line style="stroke:#181818;stroke-width:1;" x1="591.5" x2="591.5" y1="442.8194" y2="450.8194"/><ellipse cx="591.5" cy="436.8194" fill="none" rx="4" ry="4" style="stroke:#181818;stroke-width:1;"/></g><!--link authors to book_authors--><g class="link" data-entity-1="ent0006" data-entity-2="ent0008" data-link-type="crowfoot" data-source-line="104" id="lnk17"><path codeLine="104" d="M651,342.2794 C651,378.4494 651,400.2894 651,433.0594" fill="none" id="authors-book_authors" style="stroke:#181818;stroke-width:1;"/><line style="stroke:#181818;stroke-width:1;" x1="647" x2="655" y1="338.2794" y2="338.2794"/><line style="stroke:#181818;stroke-width:1;" x1="647" x2="655" y1="341.2794" y2="341.2794"/><line style="stroke:#181818;stroke-width:1;" x1="651" x2="651" y1="342.2794" y2="334.2794"/><line style="stroke:#181818;stroke-width:1;" x1="651" x2="657" y1="443.0594" y2="451.0594"/><line style="stroke:#181818;stroke-width:1;" x1="651" x2="645" y1="443.0594" y2="451.0594"/><line style="stroke:#181818;stroke-width:1;" x1="651" x2="651" y1="443.0594" y2="451.0594"/><ellipse cx="651" cy="437.0594" fill="none" rx="4" ry="4" style="stroke:#181818;stroke-width:1;"/></g><!--link books to book_copies--><g class="link" data-entity-1="ent0007" data-entity-2="ent0009" data-link-type="crowfoot" data-source-line="105" id="lnk18"><path codeLine="105" d="M453.75,368.8194 C453.75,391.5194 453.75,389.9794 453.75,411.3694" fill="none" id="books-book_copies" style="stroke:#181818;stroke-width:1;"/><line style="stroke:#181818;stroke-width:1;" x1="449.75" x2="457.75" y1="364.8194" y2="364.8194"/><line style="stroke:#181818;stroke-width:1;" x1="449.75" x2="457.75" y1="367.8194" y2="367.8194"/><line style="stroke:#181818;stroke-width:1;" x1="453.75" x2="453.75" y1="368.8194" y2="360.8194"/><line style="stroke:#181818;stroke-width:1;" x1="453.75" x2="459.75" y1="421.3694" y2="429.3694"/><line style="stroke:#181818;stroke-width:1;" x1="453.75" x2="447.75" y1="421.3694" y2="429.3694"/><line style="stroke:#181818;stroke-width:1;" x1="453.75" x2="453.75" y1="421.3694" y2="429.3694"/><ellipse cx="453.75" cy="415.3694" fill="none" rx="4" ry="4" style="stroke:#181818;stroke-width:1;"/></g><!--link members to loans--><g class="link" data-entity-1="ent0003" data-entity-2="ent0010" data-link-type="crowfoot" data-source-line="106" id="lnk19"><path codeLine="106" d="M242,564.8794 C242,583.6594 242,578.3694 242,598.3494" fill="none" id="members-loans" style="stroke:#181818;stroke-width:1;"/><line style="stroke:#181818;stroke-width:1;" x1="238" x2="246" y1="560.8794" y2="560.8794"/><line style="stroke:#181818;stroke-width:1;" x1="238" x2="246" y1="563.8794" y2="563.8794"/><line style="stroke:#181818;stroke-width:1;" x1="242" x2="242" y1="564.8794" y2="556.8794"/><line style="stroke:#181818;stroke-width:1;" x1="242" x2="248" y1="608.3494" y2="616.3494"/><line style="stroke:#181818;stroke-width:1;" x1="242" x2="236" y1="608.3494" y2="616.3494"/><line style="stroke:#181818;stroke-width:1;" x1="242" x2="242" y1="608.3494" y2="616.3494"/><ellipse cx="242" cy="602.3494" fill="none" rx="4" ry="4" style="stroke:#181818;stroke-width:1;"/></g><!--link book_copies to loans--><g class="link" data-entity-1="ent0009" data-entity-2="ent0010" data-link-type="crowfoot" data-source-line="107" id="lnk20"><path codeLine="107" d="M367.25,555.8994 C367.25,592.9294 367.25,625.6094 367.25,625.6094 C367.25,625.6094 346.98,625.6094 312.75,625.6094" fill="none" id="book_copies-loans" style="stroke:#181818;stroke-width:1;"/><line style="stroke:#181818;stroke-width:1;" x1="363.25" x2="371.25" y1="551.8994" y2="551.8994"/><line style="stroke:#181818;stroke-width:1;" x1="363.25" x2="371.25" y1="554.8994" y2="554.8994"/><line style="stroke:#181818;stroke-width:1;" x1="367.25" x2="367.25" y1="555.8994" y2="547.8994"/><line style="stroke:#181818;stroke-width:1;" x1="302.75" x2="294.75" y1="625.6094" y2="631.6094"/><line style="stroke:#181818;stroke-width:1;" x1="302.75" x2="294.75" y1="625.6094" y2="619.6094"/><line style="stroke:#181818;stroke-width:1;" x1="302.75" x2="294.75" y1="625.6094" y2="625.6094"/><ellipse cx="308.75" cy="625.6094" fill="none" rx="4" ry="4" style="stroke:#181818;stroke-width:1;"/></g><!--link loans to fines--><g class="link" data-entity-1="ent0010" data-entity-2="ent0011" data-link-type="association" data-source-line="108" id="lnk21"><path codeLine="108" d="M242,813.7894 C242,833.7794 242,831.4994 242,850.2894" fill="none" id="loans-fines" style="stroke:#181818;stroke-width:1;"/><line style="stroke:#181818;stroke-width:1;" x1="238" x2="246" y1="809.7894" y2="809.7894"/><line style="stroke:#181818;stroke-width:1;" x1="238" x2="246" y1="812.7894" y2="812.7894"/><line style="stroke:#181818;stroke-width:1;" x1="242" x2="242" y1="813.7894" y2="805.7894"/><line style="stroke:#181818;stroke-width:1;" x1="242" x2="242" y1="854.2894" y2="865.2894"/><ellipse cx="242" cy="854.2894" fill="none" rx="4" ry="4" style="stroke:#181818;stroke-width:1;"/><line style="stroke:#181818;stroke-width:1;" x1="246" x2="238" y1="861.2894" y2="861.2894"/></g><!--link members to reservations--><g class="link" data-entity-1="ent0003" data-entity-2="ent0012" data-link-type="crowfoot" data-source-line="109" id="lnk22"><path codeLine="109" d="M322.22,552.6094 C372.56,552.6094 422.75,552.6094 422.75,552.6094 C422.75,552.6094 422.75,575.4794 422.75,615.7194" fill="none" id="members-reservations" style="stroke:#181818;stroke-width:1;"/><line style="stroke:#181818;stroke-width:1;" x1="318.22" x2="318.22" y1="556.6094" y2="548.6094"/><line style="stroke:#181818;stroke-width:1;" x1="321.22" x2="321.22" y1="556.6094" y2="548.6094"/><line style="stroke:#181818;stroke-width:1;" x1="322.22" x2="314.22" y1="552.6094" y2="552.6094"/><line style="stroke:#181818;stroke-width:1;" x1="422.75" x2="428.75" y1="625.7194" y2="633.7194"/><line style="stroke:#181818;stroke-width:1;" x1="422.75" x2="416.75" y1="625.7194" y2="633.7194"/><line style="stroke:#181818;stroke-width:1;" x1="422.75" x2="422.75" y1="625.7194" y2="633.7194"/><ellipse cx="422.75" cy="619.7194" fill="none" rx="4" ry="4" style="stroke:#181818;stroke-width:1;"/></g><!--link books to reservations--><g class="link" data-entity-1="ent0007" data-entity-2="ent0012" data-link-type="crowfoot" data-source-line="110" id="lnk23"><path codeLine="110" d="M496.75,369.0294 C496.75,446.3794 496.75,538.6294 496.75,615.9094" fill="none" id="books-reservations" style="stroke:#181818;stroke-width:1;"/><line style="stroke:#181818;stroke-width:1;" x1="492.75" x2="500.75" y1="365.0294" y2="365.0294"/><line style="stroke:#181818;stroke-width:1;" x1="492.75" x2="500.75" y1="368.0294" y2="368.0294"/><line style="stroke:#181818;stroke-width:1;" x1="496.75" x2="496.75" y1="369.0294" y2="361.0294"/><line style="stroke:#181818;stroke-width:1;" x1="496.75" x2="502.75" y1="625.9094" y2="633.9094"/><line style="stroke:#181818;stroke-width:1;" x1="496.75" x2="490.75" y1="625.9094" y2="633.9094"/><line style="stroke:#181818;stroke-width:1;" x1="496.75" x2="496.75" y1="625.9094" y2="633.9094"/><ellipse cx="496.75" cy="619.9094" fill="none" rx="4" ry="4" style="stroke:#181818;stroke-width:1;"/></g><!--link staff to loans--><g class="link" data-entity-1="ent0004" data-entity-2="ent0010" data-link-type="crowfoot" data-source-line="111" id="lnk24"><path codeLine="111" d="M71,547.2094 C71,613.0094 71,711.6094 71,711.6094 C71,711.6094 121.06,711.6094 171.3,711.6094" fill="none" id="staff-loans" style="stroke:#181818;stroke-width:1;"/><line style="stroke:#181818;stroke-width:1;" x1="67" x2="75" y1="543.2094" y2="543.2094"/><line style="stroke:#181818;stroke-width:1;" x1="67" x2="75" y1="546.2094" y2="546.2094"/><line style="stroke:#181818;stroke-width:1;" x1="71" x2="71" y1="547.2094" y2="539.2094"/><line style="stroke:#181818;stroke-width:1;" x1="181.3" x2="189.3" y1="711.6094" y2="705.6094"/><line style="stroke:#181818;stroke-width:1;" x1="181.3" x2="189.3" y1="711.6094" y2="717.6094"/><line style="stroke:#181818;stroke-width:1;" x1="181.3" x2="189.3" y1="711.6094" y2="711.6094"/><ellipse cx="175.3" cy="711.6094" fill="none" rx="4" ry="4" style="stroke:#181818;stroke-width:1;"/><text fill="#000000" font-family="sans-serif" font-size="13" lengthAdjust="spacing" textLength="46.2427" x="24" y="681.0545">librarian</text></g><?plantuml-src VLJBZjim3BphAtGka1_ekPS2YzrBxmPjCsjYRSaWvMIDJV-zUZfAjEWb6L7I34KExSZDg5-eP-1T_m87FGZgjmloXV2gr4GZwWNTP4T92t78QDs-eYZv8BC2mw9dCXXYsh8_gnGQHsxNco2B_b9Q_uYuer7_rBzV__Z8wUH_Gj30WXwk87ArF7OJoEJNRESGXi7H1TNVWtF1fR-pfbN3cmzDj7Pc2p0mZIEZIA36TnB7uCYQRWGNT1Rux6OBHYefSN0-Pw686nrSrjdkY7ULYHWJvvrdyCjtouGbwnpO6xvSYn5bO5f3VXKDRBwsnylJgc4u4ulhCiyC1TzPUci_2aV03GD9R_oV2zu8VTdwcMIAZujuI7NR4KAeUigJIFUOxxDM-uAdwuDTguhPjQrMfWm8UB1ZIDVtoMrr4sDJCql03KkcFboJy1o7WkBvACLihyKiuuO5ChgD3nSrwcS_64Kzu4OzfnJykTZDk4W9OirtRDw_VZ9Z_Gjf5VfFVUgNrJToslYvaczXyuWqlxVRwMHlPQOUWt4iL6Nm6FzABbF9QrMeU48LRtotrzvALb1bzFDM6jVQAmyRgV4vpzY7PuAwd8-g3plfCr1p-p8V_lW7?></g></svg>