<svg xmlns="http://www.w3.org/2000/svg" xmlns:xlink="http://www.w3.org/1999/xlink" contentStyleType="text/css" data-diagram-type="SEQUENCE" height="1049px" preserveAspectRatio="none" style="width:1177px;height:1049px;background:#FFFFFF;" version="1.1" viewBox="0 0 1177 1049" width="1177px" zoomAndPan="magnify"><?plantuml 1.2026.3?><defs/><g><g class="title" data-source-line="1"><text fill="#000000" font-family="sans-serif" font-size="14" font-weight="700" lengthAdjust="spacing" textLength="150.1719" x="510.1545" y="29.5332">Reservation Sequence</text></g><rect fill="none" height="476.9453" style="stroke:#000000;stroke-width:1.5;" width="1151.481" x="10" y="472.0859"/><rect fill="none" height="277" style="stroke:#000000;stroke-width:1.5;" width="1131.481" x="20" y="665.0313"/><g class="participant-lifeline" data-entity-uid="part1" data-qualified-name="Member" data-source-line="3" id="part1-lifeline"><g><title>Member</title><rect fill="#000000" fill-opacity="0.00000" height="844.8125" width="8" x="54.6724" y="121.2188"/><line style="stroke:#181818;stroke-width:0.5;stroke-dasharray:5,5;" x1="58" x2="58" y1="121.2188" y2="966.0313"/></g></g><g class="participant-lifeline" data-entity-uid="part2" data-qualified-name="ConsoleMenu" data-source-line="4" id="part2-lifeline"><g><title>ConsoleMenu</title><rect fill="#000000" fill-opacity="0.00000" height="844.8125" width="8" x="293.1279" y="121.2188"/><line style="stroke:#181818;stroke-width:0.5;stroke-dasharray:5,5;" x1="296.9351" x2="296.9351" y1="121.2188" y2="966.0313"/></g></g><g class="participant-lifeline" data-entity-uid="part3" data-qualified-name="LibraryService" data-source-line="5" id="part3-lifeline"><g><title>LibraryService</title><rect fill="#000000" fill-opacity="0.00000" height="844.8125" width="8" x="536.0586" y="121.2188"/><line style="stroke:#181818;stroke-width:0.5;stroke-dasharray:5,5;" x1="539.3208" x2="539.3208" y1="121.2188" y2="966.0313"/></g></g><g class="participant-lifeline" data-entity-uid="part4" data-qualified-name="LibraryRepository" data-source-line="6" id="part4-lifeline"><g><title>LibraryRepository</title><rect fill="#000000" fill-opacity="0.00000" height="844.8125" width="8" x="818.0146" y="121.2188"/><line style="stroke:#181818;stroke-width:0.5;stroke-dasharray:5,5;" x1="821.1597" x2="821.1597" y1="121.2188" y2="966.0313"/></g></g><g class="participant-lifeline" data-entity-uid="part5" data-qualified-name="DB" data-source-line="7" id="part5-lifeline"><g><title>MySQL Database</title><rect fill="#000000" fill-opacity="0.00000" height="844.8125" width="8" x="1079.2329" y="121.2188"/><line style="stroke:#181818;stroke-width:0.5;stroke-dasharray:5,5;" x1="1082.9849" x2="1082.9849" y1="121.2188" y2="966.0313"/></g></g><g class="participant participant-head" data-entity-uid="part1" data-qualified-name="Member" data-source-line="3" id="part1-head"><text fill="#000000" font-family="sans-serif" font-size="14" lengthAdjust="spacing" textLength="51.3447" x="30" y="118.1426">Member</text><ellipse cx="58.6724" cy="52.1094" fill="#E2E2F0" rx="8" ry="8" style="stroke:#181818;stroke-width:0.5;"/><path d="M58.6724,60.1094 L58.6724,87.1094 M45.6724,68.1094 L71.6724,68.1094 M58.6724,87.1094 L45.6724,102.1094 M58.6724,87.1094 L71.6724,102.1094" fill="none" style="stroke:#181818;stroke-width:0.5;"/></g><g class="participant participant-tail" data-entity-uid="part1" data-qualified-name="Member" data-source-line="3" id="part1-tail"><text fill="#000000" font-family="sans-serif" font-size="14" lengthAdjust="spacing" textLength="51.3447" x="30" y="979.5645">Member</text><ellipse cx="58.6724" cy="991.1406" fill="#E2E2F0" rx="8" ry="8" style="stroke:#181818;stroke-width:0.5;"/><path d="M58.6724,999.1406 L58.6724,1026.1406 M45.6724,1007.1406 L71.6724,1007.1406 M58.6724,1026.1406 L45.6724,1041.1406 M58.6724,1026.1406 L71.6724,1041.1406" fill="none" style="stroke:#181818;stroke-width:0.5;"/></g><g class="participant participant-head" data-entity-uid="part2" data-qualified-name="ConsoleMenu" data-source-line="4" id="part2-head"><rect fill="#E2E2F0" height="31.6094" rx="2.5" ry="2.5" style="stroke:#181818;stroke-width:0.5;" width="100.3857" x="246.9351" y="88.6094"/><text fill="#000000" font-family="sans-serif" font-size="14" lengthAdjust="spacing" textLength="86.3857" x="253.9351" y="110.1426">ConsoleMenu</text></g><g class="participant participant-tail" data-entity-uid="part2" data-qualified-name="ConsoleMenu" data-source-line="4" id="part2-tail"><rect fill="#E2E2F0" height="31.6094" rx="2.5" ry="2.5" style="stroke:#181818;stroke-width:0.5;" width="100.3857" x="246.9351" y="965.0313"/><text fill="#000000" font-family="sans-serif" font-size="14" lengthAdjust="spacing" textLength="86.3857" x="253.9351" y="986.5645">ConsoleMenu</text></g><g class="participant participant-head" data-entity-uid="part3" data-qualified-name="LibraryService" data-source-line="5" id="part3-head"><rect fill="#E2E2F0" height="31.6094" rx="2.5" ry="2.5" style="stroke:#181818;stroke-width:0.5;" width="103.4756" x="488.3208" y="88.6094"/><text fill="#000000" font-family="sans-serif" font-size="14" lengthAdjust="spacing" textLength="89.4756" x="495.3208" y="110.1426">LibraryService</text></g><g class="participant participant-tail" data-entity-uid="part3" data-qualified-name="LibraryService" data-source-line="5" id="part3-tail"><rect fill="#E2E2F0" height="31.6094" rx="2.5" ry="2.5" style="stroke:#181818;stroke-width:0.5;" width="103.4756" x="488.3208" y="965.0313"/><text fill="#000000" font-family="sans-serif" font-size="14" lengthAdjust="spacing" textLength="89.4756" x="495.3208" y="986.5645">LibraryService</text></g><g class="participant participant-head" data-entity-uid="part4" data-qualified-name="LibraryRepository" data-source-line="6" id="part4-head"><rect fill="#E2E2F0" height="31.6094" rx="2.5" ry="2.5" style="stroke:#181818;stroke-width:0.5;" width="123.71" x="760.1597" y="88.6094"/><text fill="#000000" font-family="sans-serif" font-size="14" lengthAdjust="spacing" textLength="109.71" x="767.1597" y="110.1426">LibraryRepository</text></g><g class="participant participant-tail" data-entity-uid="part4" data-qualified-name="LibraryRepository" data-source-line="6" id="part4-tail"><rect fill="#E2E2F0" height="31.6094" rx="2.5" ry="2.5" style="stroke:#181818;stroke-width:0.5;" width="123.71" x="760.1597" y="965.0313"/><text fill="#000000" font-family="sans-serif" font-size="14" lengthAdjust="spacing" textLength="109.71" x="767.1597" y="986.5645">LibraryRepository</text></g><g class="participant participant-head" data-entity-uid="part5" data-qualified-name="DB" data-source-line="7" id="part5-head"><text fill="#000000" font-family="sans-serif" font-size="14" lengthAdjust="spacing" textLength="110.4961" x="1024.9849" y="118.1426">MySQL Database</text><path d="M1065.2329,67.6094 C1065.2329,57.6094 1083.2329,57.6094 1083.2329,57.6094 C1083.2329,57.6094 1101.2329,57.6094 1101.2329,67.6094 L1101.2329,93.6094 C1101.2329,103.6094 1083.2329,103.6094 1083.2329,103.6094 C1083.2329,103.6094 1065.2329,103.6094 1065.2329,93.6094 L1065.2329,67.6094" fill="#E2E2F0" style="stroke:#181818;stroke-width:0.5;"/><path d="M1065.2329,67.6094 C1065.2329,77.6094 1083.2329,77.6094 1083.2329,77.6094 C1083.2329,77.6094 1101.2329,77.6094 1101.2329,67.6094" fill="none" style="stroke:#181818;stroke-width:0.5;"/></g><g class="participant participant-tail" data-entity-uid="part5" data-qualified-name="DB" data-source-line="7" id="part5-tail"><text fill="#000000" font-family="sans-serif" font-size="14" lengthAdjust="spacing" textLength="110.4961" x="1024.9849" y="979.5645">MySQL Database</text><path d="M1065.2329,992.6406 C1065.2329,982.6406 1083.2329,982.6406 1083.2329,982.6406 C1083.2329,982.6406 1101.2329,982.6406 1101.2329,992.6406 L1101.2329,1018.6406 C1101.2329,1028.6406 1083.2329,1028.6406 1083.2329,1028.6406 C1083.2329,1028.6406 1065.2329,1028.6406 1065.2329,1018.6406 L1065.2329,992.6406" fill="#E2E2F0" style="stroke:#181818;stroke-width:0.5;"/><path d="M1065.2329,992.6406 C1065.2329,1002.6406 1083.2329,1002.6406 1083.2329,1002.6406 C1083.2329,1002.6406 1101.2329,1002.6406 1101.2329,992.6406" fill="none" style="stroke:#181818;stroke-width:0.5;"/></g><g class="message" data-entity-1="part1" data-entity-2="part2" data-source-line="9" id="msg1"><polygon fill="#181818" points="285.1279,149.5703,295.1279,153.5703,285.1279,157.5703,289.1279,153.5703" style="stroke:#181818;stroke-width:1;"/><line style="stroke:#181818;stroke-width:1;" x1="58.6724" x2="291.1279" y1="153.5703" y2="153.5703"/><text fill="#000000" font-family="sans-serif" font-size="13" lengthAdjust="spacing" textLength="127.0103" x="65.6724" y="148.7139">select "Reserve book"</text></g><g class="message" data-entity-1="part2" data-entity-2="part1" data-source-line="10" id="msg2"><polygon fill="#181818" points="69.6724,179.9219,59.6724,183.9219,69.6724,187.9219,65.6724,183.9219" style="stroke:#181818;stroke-width:1;"/><line style="stroke:#181818;stroke-width:1;" x1="63.6724" x2="296.1279" y1="183.9219" y2="183.9219"/><text fill="#000000" font-family="sans-serif" font-size="13" lengthAdjust="spacing" textLength="68.6436" x="75.6724" y="179.0654">ask book ID</text></g><g class="message" data-entity-1="part1" data-entity-2="part2" data-source-line="11" id="msg3"><polygon fill="#181818" points="285.1279,210.2734,295.1279,214.2734,285.1279,218.2734,289.1279,214.2734" style="stroke:#181818;stroke-width:1;"/><line style="stroke:#181818;stroke-width:1;" x1="58.6724" x2="291.1279" y1="214.2734" y2="214.2734"/><text fill="#000000" font-family="sans-serif" font-size="13" lengthAdjust="spacing" textLength="78.0444" x="65.6724" y="209.417">enter book ID</text></g><g class="message" data-entity-1="part2" data-entity-2="part3" data-source-line="12" id="msg4"><polygon fill="#181818" points="528.0586,240.625,538.0586,244.625,528.0586,248.625,532.0586,244.625" style="stroke:#181818;stroke-width:1;"/><line style="stroke:#181818;stroke-width:1;" x1="297.1279" x2="534.0586" y1="244.625" y2="244.625"/><text fill="#000000" font-family="sans-serif" font-size="13" lengthAdjust="spacing" textLength="218.9307" x="304.1279" y="239.7686">createReservation(bookId, memberId)</text></g><g class="message" data-entity-1="part3" data-entity-2="part4" data-source-line="14" id="msg5"><polygon fill="#181818" points="810.0146,270.9766,820.0146,274.9766,810.0146,278.9766,814.0146,274.9766" style="stroke:#181818;stroke-width:1;"/><line style="stroke:#181818;stroke-width:1;" x1="540.0586" x2="816.0146" y1="274.9766" y2="274.9766"/><text fill="#000000" font-family="sans-serif" font-size="13" lengthAdjust="spacing" textLength="124.2935" x="547.0586" y="270.1201">findBookById(bookId)</text></g><g class="message" data-entity-1="part4" data-entity-2="part5" data-source-line="15" id="msg6"><polygon fill="#181818" points="1071.2329,301.3281,1081.2329,305.3281,1071.2329,309.3281,1075.2329,305.3281" style="stroke:#181818;stroke-width:1;"/><line style="stroke:#181818;stroke-width:1;" x1="822.0146" x2="1077.2329" y1="305.3281" y2="305.3281"/><text fill="#000000" font-family="sans-serif" font-size="13" lengthAdjust="spacing" textLength="82.3735" x="829.0146" y="300.4717">SELECT book</text></g><g class="message" data-entity-1="part5" data-entity-2="part4" data-source-line="16" id="msg7"><polygon fill="#181818" points="833.0146,331.6797,823.0146,335.6797,833.0146,339.6797,829.0146,335.6797" style="stroke:#181818;stroke-width:1;"/><line style="stroke:#181818;stroke-width:1;stroke-dasharray:2,2;" x1="827.0146" x2="1082.2329" y1="335.6797" y2="335.6797"/><text fill="#000000" font-family="sans-serif" font-size="13" lengthAdjust="spacing" textLength="52.749" x="839.0146" y="330.8232">book row</text></g><g class="message" data-entity-1="part4" data-entity-2="part3" data-source-line="17" id="msg8"><polygon fill="#181818" points="551.0586,362.0313,541.0586,366.0313,551.0586,370.0313,547.0586,366.0313" style="stroke:#181818;stroke-width:1;"/><line style="stroke:#181818;stroke-width:1;stroke-dasharray:2,2;" x1="545.0586" x2="821.0146" y1="366.0313" y2="366.0313"/><text fill="#000000" font-family="sans-serif" font-size="13" lengthAdjust="spacing" textLength="29.6309" x="557.0586" y="361.1748">Book</text></g><g class="message" data-entity-1="part3" data-entity-2="part4" data-source-line="19" id="msg9"><polygon fill="#181818" points="810.0146,392.3828,820.0146,396.3828,810.0146,400.3828,814.0146,396.3828" style="stroke:#181818;stroke-width:1;"/><line style="stroke:#181818;stroke-width:1;" x1="540.0586" x2="816.0146" y1="396.3828" y2="396.3828"/><text fill="#000000" font-family="sans-serif" font-size="13" lengthAdjust="spacing" textLength="151.7534" x="547.0586" y="391.5264">hasAvailableCopy(bookId)</text></g><g class="message" data-entity-1="part4" data-entity-2="part5" data-source-line="20" id="msg10"><polygon fill="#181818" points="1071.2329,422.7344,1081.2329,426.7344,1071.2329,430.7344,1075.2329,426.7344" style="stroke:#181818;stroke-width:1;"/><line style="stroke:#181818;stroke-width:1;" x1="822.0146" x2="1077.2329" y1="426.7344" y2="426.7344"/><text fill="#000000" font-family="sans-serif" font-size="13" lengthAdjust="spacing" textLength="171.9834" x="829.0146" y="421.8779">SELECT available copy count</text></g><g class="message" data-entity-1="part5" data-entity-2="part4" data-source-line="21" id="msg11"><polygon fill="#181818" points="833.0146,453.0859,823.0146,457.0859,833.0146,461.0859,829.0146,457.0859" style="stroke:#181818;stroke-width:1;"/><line style="stroke:#181818;stroke-width:1;stroke-dasharray:2,2;" x1="827.0146" x2="1082.2329" y1="457.0859" y2="457.0859"/><text fill="#000000" font-family="sans-serif" font-size="13" lengthAdjust="spacing" textLength="31.8018" x="839.0146" y="452.2295">count</text></g><path d="M10,472.0859 L70.1709,472.0859 L70.1709,480.4375 L60.1709,490.4375 L10,490.4375 L10,472.0859" fill="#EEEEEE" style="stroke:#000000;stroke-width:1.5;"/><rect fill="none" height="476.9453" style="stroke:#000000;stroke-width:1.5;" width="1151.481" x="10" y="472.0859"/><text fill="#000000" font-family="sans-serif" font-size="13" font-weight="700" lengthAdjust="spacing" textLength="15.1709" x="25" y="486.5811">alt</text><text fill="#000000" font-family="sans-serif" font-size="11" font-weight="700" lengthAdjust="spacing" textLength="116.7783" x="85.1709" y="485.5049">[available copy exists]</text><g class="message" data-entity-1="part3" data-entity-2="part2" data-source-line="24" id="msg12"><polygon fill="#181818" points="308.1279,508.7891,298.1279,512.7891,308.1279,516.7891,304.1279,512.7891" style="stroke:#181818;stroke-width:1;"/><line style="stroke:#181818;stroke-width:1;stroke-dasharray:2,2;" x1="302.1279" x2="539.0586" y1="512.7891" y2="512.7891"/><text fill="#000000" font-family="sans-serif" font-size="13" lengthAdjust="spacing" textLength="104.0508" x="314.1279" y="507.9326">refuse reservation</text></g><g class="message" data-entity-1="part2" data-entity-2="part1" data-source-line="25" id="msg13"><polygon fill="#181818" points="69.6724,539.1406,59.6724,543.1406,69.6724,547.1406,65.6724,543.1406" style="stroke:#181818;stroke-width:1;"/><line style="stroke:#181818;stroke-width:1;stroke-dasharray:2,2;" x1="63.6724" x2="296.1279" y1="543.1406" y2="543.1406"/><text fill="#000000" font-family="sans-serif" font-size="13" lengthAdjust="spacing" textLength="214.4556" x="75.6724" y="538.2842">show "borrow available copy instead"</text></g><line style="stroke:#000000;stroke-width:1;stroke-dasharray:2,2;" x1="10" x2="1161.481" y1="552.1406" y2="552.1406"/><text fill="#000000" font-family="sans-serif" font-size="11" font-weight="700" lengthAdjust="spacing" textLength="99.0269" x="15" y="563.5596">[no copy available]</text><g class="message" data-entity-1="part3" data-entity-2="part4" data-source-line="27" id="msg14"><polygon fill="#181818" points="810.0146,585.3281,820.0146,589.3281,810.0146,593.3281,814.0146,589.3281" style="stroke:#181818;stroke-width:1;"/><line style="stroke:#181818;stroke-width:1;" x1="540.0586" x2="816.0146" y1="589.3281" y2="589.3281"/><text fill="#000000" font-family="sans-serif" font-size="13" lengthAdjust="spacing" textLength="251.4688" x="547.0586" y="584.4717">hasPendingReservation(memberId, bookId)</text></g><g class="message" data-entity-1="part4" data-entity-2="part5" data-source-line="28" id="msg15"><polygon fill="#181818" points="1071.2329,615.6797,1081.2329,619.6797,1071.2329,623.6797,1075.2329,619.6797" style="stroke:#181818;stroke-width:1;"/><line style="stroke:#181818;stroke-width:1;" x1="822.0146" x2="1077.2329" y1="619.6797" y2="619.6797"/><text fill="#000000" font-family="sans-serif" font-size="13" lengthAdjust="spacing" textLength="203.7852" x="829.0146" y="614.8232">SELECT pending reservation count</text></g><g class="message" data-entity-1="part5" data-entity-2="part4" data-source-line="29" id="msg16"><polygon fill="#181818" points="833.0146,646.0313,823.0146,650.0313,833.0146,654.0313,829.0146,650.0313" style="stroke:#181818;stroke-width:1;"/><line style="stroke:#181818;stroke-width:1;stroke-dasharray:2,2;" x1="827.0146" x2="1082.2329" y1="650.0313" y2="650.0313"/><text fill="#000000" font-family="sans-serif" font-size="13" lengthAdjust="spacing" textLength="31.8018" x="839.0146" y="645.1748">count</text></g><path d="M20,665.0313 L80.1709,665.0313 L80.1709,673.3828 L70.1709,683.3828 L20,683.3828 L20,665.0313" fill="#EEEEEE" style="stroke:#000000;stroke-width:1.5;"/><rect fill="none" height="277" style="stroke:#000000;stroke-width:1.5;" width="1131.481" x="20" y="665.0313"/><text fill="#000000" font-family="sans-serif" font-size="13" font-weight="700" lengthAdjust="spacing" textLength="15.1709" x="35" y="679.5264">alt</text><text fill="#000000" font-family="sans-serif" font-size="11" font-weight="700" lengthAdjust="spacing" textLength="163.8022" x="95.1709" y="678.4502">[duplicate pending reservation]</text><g class="message" data-entity-1="part3" data-entity-2="part2" data-source-line="32" id="msg17"><polygon fill="#181818" points="308.1279,701.7344,298.1279,705.7344,308.1279,709.7344,304.1279,705.7344" style="stroke:#181818;stroke-width:1;"/><line style="stroke:#181818;stroke-width:1;stroke-dasharray:2,2;" x1="302.1279" x2="539.0586" y1="705.7344" y2="705.7344"/><text fill="#000000" font-family="sans-serif" font-size="13" lengthAdjust="spacing" textLength="91.7808" x="314.1279" y="700.8779">refuse duplicate</text></g><g class="message" data-entity-1="part2" data-entity-2="part1" data-source-line="33" id="msg18"><polygon fill="#181818" points="69.6724,732.0859,59.6724,736.0859,69.6724,740.0859,65.6724,736.0859" style="stroke:#181818;stroke-width:1;"/><line style="stroke:#181818;stroke-width:1;stroke-dasharray:2,2;" x1="63.6724" x2="296.1279" y1="736.0859" y2="736.0859"/><text fill="#000000" font-family="sans-serif" font-size="13" lengthAdjust="spacing" textLength="142.3589" x="75.6724" y="731.2295">show duplicate message</text></g><line style="stroke:#000000;stroke-width:1;stroke-dasharray:2,2;" x1="20" x2="1151.481" y1="745.0859" y2="745.0859"/><text fill="#000000" font-family="sans-serif" font-size="11" font-weight="700" lengthAdjust="spacing" textLength="108.8237" x="25" y="756.5049">[reservation created]</text><g class="message" data-entity-1="part3" data-entity-2="part4" data-source-line="35" id="msg19"><polygon fill="#181818" points="810.0146,778.2734,820.0146,782.2734,810.0146,786.2734,814.0146,782.2734" style="stroke:#181818;stroke-width:1;"/><line style="stroke:#181818;stroke-width:1;" x1="540.0586" x2="816.0146" y1="782.2734" y2="782.2734"/><text fill="#000000" font-family="sans-serif" font-size="13" lengthAdjust="spacing" textLength="257.9561" x="547.0586" y="777.417">createReservation(bookId, memberId, dates)</text></g><g class="message" data-entity-1="part4" data-entity-2="part5" data-source-line="36" id="msg20"><polygon fill="#181818" points="1071.2329,808.625,1081.2329,812.625,1071.2329,816.625,1075.2329,812.625" style="stroke:#181818;stroke-width:1;"/><line style="stroke:#181818;stroke-width:1;" x1="822.0146" x2="1077.2329" y1="812.625" y2="812.625"/><text fill="#000000" font-family="sans-serif" font-size="13" lengthAdjust="spacing" textLength="237.2183" x="829.0146" y="807.7686">INSERT reservations(status='PENDING')</text></g><g class="message" data-entity-1="part5" data-entity-2="part4" data-source-line="37" id="msg21"><polygon fill="#181818" points="833.0146,838.9766,823.0146,842.9766,833.0146,846.9766,829.0146,842.9766" style="stroke:#181818;stroke-width:1;"/><line style="stroke:#181818;stroke-width:1;stroke-dasharray:2,2;" x1="827.0146" x2="1082.2329" y1="842.9766" y2="842.9766"/><text fill="#000000" font-family="sans-serif" font-size="13" lengthAdjust="spacing" textLength="80.9199" x="839.0146" y="838.1201">reservation ID</text></g><g class="message" data-entity-1="part4" data-entity-2="part3" data-source-line="38" id="msg22"><polygon fill="#181818" points="551.0586,869.3281,541.0586,873.3281,551.0586,877.3281,547.0586,873.3281" style="stroke:#181818;stroke-width:1;"/><line style="stroke:#181818;stroke-width:1;stroke-dasharray:2,2;" x1="545.0586" x2="821.0146" y1="873.3281" y2="873.3281"/><text fill="#000000" font-family="sans-serif" font-size="13" lengthAdjust="spacing" textLength="69.3672" x="557.0586" y="868.4717">Reservation</text></g><g class="message" data-entity-1="part3" data-entity-2="part2" data-source-line="39" id="msg23"><polygon fill="#181818" points="308.1279,899.6797,298.1279,903.6797,308.1279,907.6797,304.1279,903.6797" style="stroke:#181818;stroke-width:1;"/><line style="stroke:#181818;stroke-width:1;stroke-dasharray:2,2;" x1="302.1279" x2="539.0586" y1="903.6797" y2="903.6797"/><text fill="#000000" font-family="sans-serif" font-size="13" lengthAdjust="spacing" textLength="69.3672" x="314.1279" y="898.8232">Reservation</text></g><g class="message" data-entity-1="part2" data-entity-2="part1" data-source-line="40" id="msg24"><polygon fill="#181818" points="69.6724,930.0313,59.6724,934.0313,69.6724,938.0313,65.6724,934.0313" style="stroke:#181818;stroke-width:1;"/><line style="stroke:#181818;stroke-width:1;stroke-dasharray:2,2;" x1="63.6724" x2="296.1279" y1="934.0313" y2="934.0313"/><text fill="#000000" font-family="sans-serif" font-size="13" lengthAdjust="spacing" textLength="80.9199" x="75.6724" y="929.1748">show success</text></g><?plantuml-src bLJHRgCm47ptLwnuQICbFr3fJcf2L24bKI_q1mpUjbQ9JRscFVw-2oIDGo597q32pCpkZDVssXS8MoHq7z9hQo35zmfDZaB8t5i7Qznbw4GfdTUvBgNniB26R85hDDN9-afdJhewPItD0WE_jbXQqYnR2oMzp2GXHEiw_RU2UFyTWII8vq9qXM7sDwm7Tq1OOEuXwff6oAnzYqI8OSgUVCTYRoq2adXK4OtdvGEgftHgYj6vG-anYEosOIPg2hjMFr4J8Ngieyun0PPwraRDcJol4xLNcOYVG6R7SuQdozLoyTGsAdXXDgBQ6d7sSqXfo53JmRKTlqgw_v2wa5c12rlMrtSj3pJ8cSUlolXpBZg0a8NlK_6_9ay2-avcFpRMuNF54-QEUyMia_qDHuLUxIT4cNMSNR-cDkHHgaXWmOB6TglVe85cHlDxHAEqUGa7w30uKpZ42N0nqBBJ2TtjGmEud2j0awogoaBdFCv3QeovFkDlfPPrFkDZrHqIoPU6q-PwOgKzPcgmYH5d5m_c5FZMGPg4eWC19vjqkNqAkw5Ryj9NzEVcSRc9ayt3JQTn9kVG2zyg8nM7pkFsjrlG9vnFdweyvzYRp8qI_7m1?></g></svg>