<svg xmlns="http://www.w3.org/2000/svg" xmlns:xlink="http://www.w3.org/1999/xlink" contentStyleType="text/css" data-diagram-type="SEQUENCE" height="949px" preserveAspectRatio="none" style="width:932px;height:949px;background:#FFFFFF;" version="1.1" viewBox="0 0 932 949" width="932px" zoomAndPan="magnify"><?plantuml 1.2026.3?><defs/><g><g class="title" data-source-line="1"><text fill="#000000" font-family="sans-serif" font-size="14" font-weight="700" lengthAdjust="spacing" textLength="154.0273" x="385.6973" y="29.5332">Return Book Sequence</text></g><rect fill="none" height="216.2969" style="stroke:#000000;stroke-width:1.5;" width="803.3667" x="113.0552" y="602.1406"/><g class="participant-lifeline" data-entity-uid="part1" data-qualified-name="Librarian" data-source-line="3" id="part1-lifeline"><g><title>Librarian</title><rect fill="#000000" fill-opacity="0.00000" height="744.5703" width="8" x="31.2378" y="121.2188"/><line style="stroke:#181818;stroke-width:0.5;stroke-dasharray:5,5;" x1="35" x2="35" y1="121.2188" y2="865.7891"/></g></g><g class="participant-lifeline" data-entity-uid="part2" data-qualified-name="ConsoleMenu" data-source-line="4" id="part2-lifeline"><g><title>ConsoleMenu</title><rect fill="#000000" fill-opacity="0.00000" height="744.5703" width="8" x="169.248" y="121.2188"/><line style="stroke:#181818;stroke-width:0.5;stroke-dasharray:5,5;" x1="173.0552" x2="173.0552" y1="121.2188" y2="865.7891"/></g></g><g class="participant-lifeline" data-entity-uid="part3" data-qualified-name="LibraryService" data-source-line="5" id="part3-lifeline"><g><title>LibraryService</title><rect fill="#000000" fill-opacity="0.00000" height="744.5703" width="8" x="300.917" y="121.2188"/><line style="stroke:#181818;stroke-width:0.5;stroke-dasharray:5,5;" x1="304.1792" x2="304.1792" y1="121.2188" y2="865.7891"/></g></g><g class="participant-lifeline" data-entity-uid="part4" data-qualified-name="LibraryRepository" data-source-line="6" id="part4-lifeline"><g><title>LibraryRepository</title><rect fill="#000000" fill-opacity="0.00000" height="744.5703" width="8" x="540.9912" y="121.2188"/><line style="stroke:#181818;stroke-width:0.5;stroke-dasharray:5,5;" x1="544.1362" x2="544.1362" y1="121.2188" y2="865.7891"/></g></g><g class="participant-lifeline" data-entity-uid="part5" data-qualified-name="DB" data-source-line="7" id="part5-lifeline"><g><title>MySQL Database</title><rect fill="#000000" fill-opacity="0.00000" height="744.5703" width="8" x="844.1738" y="121.2188"/><line style="stroke:#181818;stroke-width:0.5;stroke-dasharray:5,5;" x1="847.9258" x2="847.9258" y1="121.2188" y2="865.7891"/></g></g><g class="participant participant-head" data-entity-uid="part1" data-qualified-name="Librarian" data-source-line="3" id="part1-head"><text fill="#000000" font-family="sans-serif" font-size="14" lengthAdjust="spacing" textLength="54.4756" x="5" y="118.1426">Librarian</text><ellipse cx="35.2378" cy="52.1094" fill="#E2E2F0" rx="8" ry="8" style="stroke:#181818;stroke-width:0.5;"/><path d="M35.2378,60.1094 L35.2378,87.1094 M22.2378,68.1094 L48.2378,68.1094 M35.2378,87.1094 L22.2378,102.1094 M35.2378,87.1094 L48.2378,102.1094" fill="none" style="stroke:#181818;stroke-width:0.5;"/></g><g class="participant participant-tail" data-entity-uid="part1" data-qualified-name="Librarian" data-source-line="3" id="part1-tail"><text fill="#000000" font-family="sans-serif" font-size="14" lengthAdjust="spacing" textLength="54.4756" x="5" y="879.3223">Librarian</text><ellipse cx="35.2378" cy="890.8984" fill="#E2E2F0" rx="8" ry="8" style="stroke:#181818;stroke-width:0.5;"/><path d="M35.2378,898.8984 L35.2378,925.8984 M22.2378,906.8984 L48.2378,906.8984 M35.2378,925.8984 L22.2378,940.8984 M35.2378,925.8984 L48.2378,940.8984" fill="none" style="stroke:#181818;stroke-width:0.5;"/></g><g class="participant participant-head" data-entity-uid="part2" data-qualified-name="ConsoleMenu" data-source-line="4" id="part2-head"><rect fill="#E2E2F0" height="31.6094" rx="2.5" ry="2.5" style="stroke:#181818;stroke-width:0.5;" width="100.3857" x="123.0552" y="88.6094"/><text fill="#000000" font-family="sans-serif" font-size="14" lengthAdjust="spacing" textLength="86.3857" x="130.0552" y="110.1426">ConsoleMenu</text></g><g class="participant participant-tail" data-entity-uid="part2" data-qualified-name="ConsoleMenu" data-source-line="4" id="part2-tail"><rect fill="#E2E2F0" height="31.6094" rx="2.5" ry="2.5" style="stroke:#181818;stroke-width:0.5;" width="100.3857" x="123.0552" y="864.7891"/><text fill="#000000" font-family="sans-serif" font-size="14" lengthAdjust="spacing" textLength="86.3857" x="130.0552" y="886.3223">ConsoleMenu</text></g><g class="participant participant-head" data-entity-uid="part3" data-qualified-name="LibraryService" data-source-line="5" id="part3-head"><rect fill="#E2E2F0" height="31.6094" rx="2.5" ry="2.5" style="stroke:#181818;stroke-width:0.5;" width="103.4756" x="253.1792" y="88.6094"/><text fill="#000000" font-family="sans-serif" font-size="14" lengthAdjust="spacing" textLength="89.4756" x="260.1792" y="110.1426">LibraryService</text></g><g class="participant participant-tail" data-entity-uid="part3" data-qualified-name="LibraryService" data-source-line="5" id="part3-tail"><rect fill="#E2E2F0" height="31.6094" rx="2.5" ry="2.5" style="stroke:#181818;stroke-width:0.5;" width="103.4756" x="253.1792" y="864.7891"/><text fill="#000000" font-family="sans-serif" font-size="14" lengthAdjust="spacing" textLength="89.4756" x="260.1792" y="886.3223">LibraryService</text></g><g class="participant participant-head" data-entity-uid="part4" data-qualified-name="LibraryRepository" data-source-line="6" id="part4-head"><rect fill="#E2E2F0" height="31.6094" rx="2.5" ry="2.5" style="stroke:#181818;stroke-width:0.5;" width="123.71" x="483.1362" y="88.6094"/><text fill="#000000" font-family="sans-serif" font-size="14" lengthAdjust="spacing" textLength="109.71" x="490.1362" y="110.1426">LibraryRepository</text></g><g class="participant participant-tail" data-entity-uid="part4" data-qualified-name="LibraryRepository" data-source-line="6" id="part4-tail"><rect fill="#E2E2F0" height="31.6094" rx="2.5" ry="2.5" style="stroke:#181818;stroke-width:0.5;" width="123.71" x="483.1362" y="864.7891"/><text fill="#000000" font-family="sans-serif" font-size="14" lengthAdjust="spacing" textLength="109.71" x="490.1362" y="886.3223">LibraryRepository</text></g><g class="participant participant-head" data-entity-uid="part5" data-qualified-name="DB" data-source-line="7" id="part5-head"><text fill="#000000" font-family="sans-serif" font-size="14" lengthAdjust="spacing" textLength="110.4961" x="789.9258" y="118.1426">MySQL Database</text><path d="M830.1738,67.6094 C830.1738,57.6094 848.1738,57.6094 848.1738,57.6094 C848.1738,57.6094 866.1738,57.6094 866.1738,67.6094 L866.1738,93.6094 C866.1738,103.6094 848.1738,103.6094 848.1738,103.6094 C848.1738,103.6094 830.1738,103.6094 830.1738,93.6094 L830.1738,67.6094" fill="#E2E2F0" style="stroke:#181818;stroke-width:0.5;"/><path d="M830.1738,67.6094 C830.1738,77.6094 848.1738,77.6094 848.1738,77.6094 C848.1738,77.6094 866.1738,77.6094 866.1738,67.6094" fill="none" style="stroke:#181818;stroke-width:0.5;"/></g><g class="participant participant-tail" data-entity-uid="part5" data-qualified-name="DB" data-source-line="7" id="part5-tail"><text fill="#000000" font-family="sans-serif" font-size="14" lengthAdjust="spacing" textLength="110.4961" x="789.9258" y="879.3223">MySQL Database</text><path d="M830.1738,892.3984 C830.1738,882.3984 848.1738,882.3984 848.1738,882.3984 C848.1738,882.3984 866.1738,882.3984 866.1738,892.3984 L866.1738,918.3984 C866.1738,928.3984 848.1738,928.3984 848.1738,928.3984 C848.1738,928.3984 830.1738,928.3984 830.1738,918.3984 L830.1738,892.3984" fill="#E2E2F0" style="stroke:#181818;stroke-width:0.5;"/><path d="M830.1738,892.3984 C830.1738,902.3984 848.1738,902.3984 848.1738,902.3984 C848.1738,902.3984 866.1738,902.3984 866.1738,892.3984" fill="none" style="stroke:#181818;stroke-width:0.5;"/></g><g class="message" data-entity-1="part1" data-entity-2="part2" data-source-line="9" id="msg1"><polygon fill="#181818" points="161.248,149.5703,171.248,153.5703,161.248,157.5703,165.248,153.5703" style="stroke:#181818;stroke-width:1;"/><line style="stroke:#181818;stroke-width:1;" x1="35.2378" x2="167.248" y1="153.5703" y2="153.5703"/><text fill="#000000" font-family="sans-serif" font-size="13" lengthAdjust="spacing" textLength="114.0103" x="42.2378" y="148.7139">select "Return loan"</text></g><g class="message" data-entity-1="part2" data-entity-2="part1" data-source-line="10" id="msg2"><polygon fill="#181818" points="46.2378,179.9219,36.2378,183.9219,46.2378,187.9219,42.2378,183.9219" style="stroke:#181818;stroke-width:1;"/><line style="stroke:#181818;stroke-width:1;" x1="40.2378" x2="172.248" y1="183.9219" y2="183.9219"/><text fill="#000000" font-family="sans-serif" font-size="13" lengthAdjust="spacing" textLength="65.0317" x="52.2378" y="179.0654">ask loan ID</text></g><g class="message" data-entity-1="part1" data-entity-2="part2" data-source-line="11" id="msg3"><polygon fill="#181818" points="161.248,210.2734,171.248,214.2734,161.248,218.2734,165.248,214.2734" style="stroke:#181818;stroke-width:1;"/><line style="stroke:#181818;stroke-width:1;" x1="35.2378" x2="167.248" y1="214.2734" y2="214.2734"/><text fill="#000000" font-family="sans-serif" font-size="13" lengthAdjust="spacing" textLength="74.4326" x="42.2378" y="209.417">enter loan ID</text></g><g class="message" data-entity-1="part2" data-entity-2="part3" data-source-line="12" id="msg4"><polygon fill="#181818" points="292.917,240.625,302.917,244.625,292.917,248.625,296.917,244.625" style="stroke:#181818;stroke-width:1;"/><line style="stroke:#181818;stroke-width:1;" x1="173.248" x2="298.917" y1="244.625" y2="244.625"/><text fill="#000000" font-family="sans-serif" font-size="13" lengthAdjust="spacing" textLength="107.6689" x="180.248" y="239.7686">returnBook(loanId)</text></g><g class="message" data-entity-1="part3" data-entity-2="part4" data-source-line="14" id="msg5"><polygon fill="#181818" points="532.9912,270.9766,542.9912,274.9766,532.9912,278.9766,536.9912,274.9766" style="stroke:#181818;stroke-width:1;"/><line style="stroke:#181818;stroke-width:1;" x1="304.917" x2="538.9912" y1="274.9766" y2="274.9766"/><text fill="#000000" font-family="sans-serif" font-size="13" lengthAdjust="spacing" textLength="119.9707" x="311.917" y="270.1201">findLoanById(loanId)</text></g><g class="message" data-entity-1="part4" data-entity-2="part5" data-source-line="15" id="msg6"><polygon fill="#181818" points="836.1738,301.3281,846.1738,305.3281,836.1738,309.3281,840.1738,305.3281" style="stroke:#181818;stroke-width:1;"/><line style="stroke:#181818;stroke-width:1;" x1="544.9912" x2="842.1738" y1="305.3281" y2="305.3281"/><text fill="#000000" font-family="sans-serif" font-size="13" lengthAdjust="spacing" textLength="192.9243" x="551.9912" y="300.4717">SELECT loan/copy/member/book</text></g><g class="message" data-entity-1="part5" data-entity-2="part4" data-source-line="16" id="msg7"><polygon fill="#181818" points="555.9912,331.6797,545.9912,335.6797,555.9912,339.6797,551.9912,335.6797" style="stroke:#181818;stroke-width:1;"/><line style="stroke:#181818;stroke-width:1;stroke-dasharray:2,2;" x1="549.9912" x2="847.1738" y1="335.6797" y2="335.6797"/><text fill="#000000" font-family="sans-serif" font-size="13" lengthAdjust="spacing" textLength="49.1372" x="561.9912" y="330.8232">loan row</text></g><g class="message" data-entity-1="part4" data-entity-2="part3" data-source-line="17" id="msg8"><polygon fill="#181818" points="315.917,362.0313,305.917,366.0313,315.917,370.0313,311.917,366.0313" style="stroke:#181818;stroke-width:1;"/><line style="stroke:#181818;stroke-width:1;stroke-dasharray:2,2;" x1="309.917" x2="543.9912" y1="366.0313" y2="366.0313"/><text fill="#000000" font-family="sans-serif" font-size="13" lengthAdjust="spacing" textLength="28.9199" x="321.917" y="361.1748">Loan</text></g><g class="message" data-entity-1="part3" data-entity-2="part3" data-source-line="19" id="msg9"><line style="stroke:#181818;stroke-width:1;" x1="304.917" x2="346.917" y1="396.3828" y2="396.3828"/><line style="stroke:#181818;stroke-width:1;" x1="346.917" x2="346.917" y1="396.3828" y2="409.3828"/><line style="stroke:#181818;stroke-width:1;" x1="305.917" x2="346.917" y1="409.3828" y2="409.3828"/><polygon fill="#181818" points="315.917,405.3828,305.917,409.3828,315.917,413.3828,311.917,409.3828" style="stroke:#181818;stroke-width:1;"/><text fill="#000000" font-family="sans-serif" font-size="13" lengthAdjust="spacing" textLength="98.9917" x="311.917" y="391.5264">check loan exists</text></g><g class="message" data-entity-1="part3" data-entity-2="part3" data-source-line="20" id="msg10"><line style="stroke:#181818;stroke-width:1;" x1="304.917" x2="346.917" y1="439.7344" y2="439.7344"/><line style="stroke:#181818;stroke-width:1;" x1="346.917" x2="346.917" y1="439.7344" y2="452.7344"/><line style="stroke:#181818;stroke-width:1;" x1="305.917" x2="346.917" y1="452.7344" y2="452.7344"/><polygon fill="#181818" points="315.917,448.7344,305.917,452.7344,315.917,456.7344,311.917,452.7344" style="stroke:#181818;stroke-width:1;"/><text fill="#000000" font-family="sans-serif" font-size="13" lengthAdjust="spacing" textLength="177.728" x="311.917" y="434.8779">check not already RETURNED</text></g><g class="message" data-entity-1="part3" data-entity-2="part3" data-source-line="21" id="msg11"><line style="stroke:#181818;stroke-width:1;" x1="304.917" x2="346.917" y1="483.0859" y2="483.0859"/><line style="stroke:#181818;stroke-width:1;" x1="346.917" x2="346.917" y1="483.0859" y2="496.0859"/><line style="stroke:#181818;stroke-width:1;" x1="305.917" x2="346.917" y1="496.0859" y2="496.0859"/><polygon fill="#181818" points="315.917,492.0859,305.917,496.0859,315.917,500.0859,311.917,496.0859" style="stroke:#181818;stroke-width:1;"/><text fill="#000000" font-family="sans-serif" font-size="13" lengthAdjust="spacing" textLength="154.6226" x="311.917" y="478.2295">calculateDelayDays(today)</text></g><g class="message" data-entity-1="part3" data-entity-2="part4" data-source-line="22" id="msg12"><polygon fill="#181818" points="532.9912,522.4375,542.9912,526.4375,532.9912,530.4375,536.9912,526.4375" style="stroke:#181818;stroke-width:1;"/><line style="stroke:#181818;stroke-width:1;" x1="304.917" x2="538.9912" y1="526.4375" y2="526.4375"/><text fill="#000000" font-family="sans-serif" font-size="13" lengthAdjust="spacing" textLength="216.0742" x="311.917" y="521.5811">returnLoan(loan, fineAmount, reason)</text></g><g class="message" data-entity-1="part4" data-entity-2="part5" data-source-line="23" id="msg13"><polygon fill="#181818" points="836.1738,552.7891,846.1738,556.7891,836.1738,560.7891,840.1738,556.7891" style="stroke:#181818;stroke-width:1;"/><line style="stroke:#181818;stroke-width:1;" x1="544.9912" x2="842.1738" y1="556.7891" y2="556.7891"/><text fill="#000000" font-family="sans-serif" font-size="13" lengthAdjust="spacing" textLength="239.3892" x="551.9912" y="551.9326">UPDATE loans SET status='RETURNED'</text></g><g class="message" data-entity-1="part4" data-entity-2="part5" data-source-line="24" id="msg14"><polygon fill="#181818" points="836.1738,583.1406,846.1738,587.1406,836.1738,591.1406,840.1738,587.1406" style="stroke:#181818;stroke-width:1;"/><line style="stroke:#181818;stroke-width:1;" x1="544.9912" x2="842.1738" y1="587.1406" y2="587.1406"/><text fill="#000000" font-family="sans-serif" font-size="13" lengthAdjust="spacing" textLength="279.1826" x="551.9912" y="582.2842">UPDATE book_copies SET status='AVAILABLE'</text></g><path d="M113.0552,602.1406 L173.2261,602.1406 L173.2261,610.4922 L163.2261,620.4922 L113.0552,620.4922 L113.0552,602.1406" fill="#EEEEEE" style="stroke:#000000;stroke-width:1.5;"/><rect fill="none" height="216.2969" style="stroke:#000000;stroke-width:1.5;" width="803.3667" x="113.0552" y="602.1406"/><text fill="#000000" font-family="sans-serif" font-size="13" font-weight="700" lengthAdjust="spacing" textLength="15.1709" x="128.0552" y="616.6357">alt</text><text fill="#000000" font-family="sans-serif" font-size="11" font-weight="700" lengthAdjust="spacing" textLength="81.2754" x="188.2261" y="615.5596">[return on time]</text><g class="message" data-entity-1="part4" data-entity-2="part5" data-source-line="27" id="msg15"><polygon fill="#181818" points="836.1738,638.8438,846.1738,642.8438,836.1738,646.8438,840.1738,642.8438" style="stroke:#181818;stroke-width:1;"/><line style="stroke:#181818;stroke-width:1;" x1="544.9912" x2="842.1738" y1="642.8438" y2="642.8438"/><text fill="#000000" font-family="sans-serif" font-size="13" lengthAdjust="spacing" textLength="88.8926" x="551.9912" y="637.9873">no fine inserted</text></g><g class="message" data-entity-1="part4" data-entity-2="part3" data-source-line="28" id="msg16"><polygon fill="#181818" points="315.917,669.1953,305.917,673.1953,315.917,677.1953,311.917,673.1953" style="stroke:#181818;stroke-width:1;"/><line style="stroke:#181818;stroke-width:1;stroke-dasharray:2,2;" x1="309.917" x2="543.9912" y1="673.1953" y2="673.1953"/><text fill="#000000" font-family="sans-serif" font-size="13" lengthAdjust="spacing" textLength="34.6899" x="321.917" y="668.3389">saved</text></g><g class="message" data-entity-1="part3" data-entity-2="part2" data-source-line="29" id="msg17"><polygon fill="#181818" points="184.248,699.5469,174.248,703.5469,184.248,707.5469,180.248,703.5469" style="stroke:#181818;stroke-width:1;"/><line style="stroke:#181818;stroke-width:1;stroke-dasharray:2,2;" x1="178.248" x2="303.917" y1="703.5469" y2="703.5469"/><text fill="#000000" font-family="sans-serif" font-size="13" lengthAdjust="spacing" textLength="61.0771" x="190.248" y="698.6904">fine = 0.00</text></g><line style="stroke:#000000;stroke-width:1;stroke-dasharray:2,2;" x1="113.0552" x2="916.4219" y1="712.5469" y2="712.5469"/><text fill="#000000" font-family="sans-serif" font-size="11" font-weight="700" lengthAdjust="spacing" textLength="108.7808" x="118.0552" y="723.9658">[late return with fine]</text><g class="message" data-entity-1="part4" data-entity-2="part5" data-source-line="31" id="msg18"><polygon fill="#181818" points="836.1738,745.7344,846.1738,749.7344,836.1738,753.7344,840.1738,749.7344" style="stroke:#181818;stroke-width:1;"/><line style="stroke:#181818;stroke-width:1;" x1="544.9912" x2="842.1738" y1="749.7344" y2="749.7344"/><text fill="#000000" font-family="sans-serif" font-size="13" lengthAdjust="spacing" textLength="183.7583" x="551.9912" y="744.8779">INSERT fines(status='UNPAID')</text></g><g class="message" data-entity-1="part4" data-entity-2="part3" data-source-line="32" id="msg19"><polygon fill="#181818" points="315.917,776.0859,305.917,780.0859,315.917,784.0859,311.917,780.0859" style="stroke:#181818;stroke-width:1;"/><line style="stroke:#181818;stroke-width:1;stroke-dasharray:2,2;" x1="309.917" x2="543.9912" y1="780.0859" y2="780.0859"/><text fill="#000000" font-family="sans-serif" font-size="13" lengthAdjust="spacing" textLength="34.6899" x="321.917" y="775.2295">saved</text></g><g class="message" data-entity-1="part3" data-entity-2="part2" data-source-line="33" id="msg20"><polygon fill="#181818" points="184.248,806.4375,174.248,810.4375,184.248,814.4375,180.248,810.4375" style="stroke:#181818;stroke-width:1;"/><line style="stroke:#181818;stroke-width:1;stroke-dasharray:2,2;" x1="178.248" x2="303.917" y1="810.4375" y2="810.4375"/><text fill="#000000" font-family="sans-serif" font-size="13" lengthAdjust="spacing" textLength="67.9326" x="190.248" y="805.5811">fine amount</text></g><g class="message" data-entity-1="part2" data-entity-2="part1" data-source-line="36" id="msg21"><polygon fill="#181818" points="46.2378,843.7891,36.2378,847.7891,46.2378,851.7891,42.2378,847.7891" style="stroke:#181818;stroke-width:1;"/><line style="stroke:#181818;stroke-width:1;stroke-dasharray:2,2;" x1="40.2378" x2="172.248" y1="847.7891" y2="847.7891"/><text fill="#000000" font-family="sans-serif" font-size="13" lengthAdjust="spacing" textLength="103.3208" x="52.2378" y="842.9326">show return result</text></g><?plantuml-src jLHDRvj04BtlhnZvObjAQfyZfH843aZ4IWtkjHh3L5vblUlk3d7vzrqsnXyDSNtf4NZlpNlpDB1aHR0aRgo6s9XNAEXNGxeY8R1YOo6NQujMeXOxj2mhkKFDy6IqCugUIJSNxz_HRK7sJNgDWKzBsXadlN8hQcHSeoCOFRV5jnoIm_C8q44I2t6S3VTVpqV20pXIL36C3jQLGJqIvn3FED4VlE9h046MN9CbpMIFm46zFfn7sp2yMzkaesJrjFTy19ref-2U-LFgElUKkCtg8_SZqBEJsCEBD4-Vok1hLfbTEzlITarsjlQZXKVSVp8c1B5cFoGz5AYpT2N22LXjg3eib7vBn-vsaZOCg2nXtS8oBLVBHPhSn4PLDGgP4bBO9jYw2PiQs-cDAtylgqiO5dxNTK3HrZIQx_n7T4PVgs3raaHb6Y8xtqS9Zf4RzpZkCup_JUxg-k7xatGf4NsFiZoAytJihqxnmIeO3Iot900-LzOcv02f7LccUXWyj4-7R-Vmu_O-t4JGVuJvb_bSaFBdsfNGUznBtWJ4LPVPeaYNPS2vIPzwjNY9icGy_L-MCNGhIDVYyfB_-ZMuZTdtSIovHl4V?></g></svg>